<?xml version="1.0" encoding="utf-8"?>
<!-- Generator: Adobe Illustrator 24.3.0, SVG Export Plug-In . SVG Version: 6.00 Build 0)  -->
<svg version="1.1" id="Ebene_1" xmlns="http://www.w3.org/2000/svg" xmlns:xlink="http://www.w3.org/1999/xlink" x="0px" y="0px"
	 viewBox="0 0 170.1 71" style="enable-background:new 0 0 170.1 71;" xml:space="preserve">
<style type="text/css">
	.st0{fill:#FFFFFF;stroke:#000000;stroke-width:1.5526;stroke-miterlimit:3.8637;}
	.st1{fill-rule:evenodd;clip-rule:evenodd;}
	.st2{fill:none;stroke:#000000;stroke-width:0.5669;stroke-miterlimit:3.8637;}
</style>
<g>
	<polygon class="st0" points="5,25.9 163.9,25.9 163.9,46.6 5,46.6 	"/>
	<path d="M22.7,38.9c0-3-4.8-1.9-4.8-4.3c0-1,1.1-1.5,2-1.5s1.8,0.3,1.9,1.3h0.8c-0.2-1.6-1.7-2-2.8-2c-1.4,0-2.7,0.8-2.7,2.3
		c0,1.9,2.1,2.3,3.5,2.8c0.7,0.2,1.3,0.6,1.3,1.5c0,1.1-1.1,1.6-2.1,1.6c-1.2,0-2.2-0.4-2.2-1.7h-0.8c0,1.4,1.2,2.4,2.6,2.4
		C21.1,41.3,22.7,40.8,22.7,38.9L22.7,38.9z"/>
	<polygon points="26.4,41.2 27.2,41.2 27.2,33.3 29.9,33.3 29.9,32.6 23.6,32.6 23.6,33.3 26.4,33.3 	"/>
	<polygon points="32.1,41.2 32.1,32.6 31.3,32.6 31.3,41.2 	"/>
	<polygon points="35.8,41.2 35.8,37 39.8,37 39.8,36.3 35.8,36.3 35.8,33.3 39.9,33.3 39.9,32.6 35.1,32.6 35.1,41.2 	"/>
	<polygon points="43.9,41.2 44.6,41.2 44.6,33.3 47.3,33.3 47.3,32.6 41.1,32.6 41.1,33.3 43.8,33.3 	"/>
	<path d="M48.8,32.6v5.6c0,1.8,1.1,3.2,3.1,3.2c2.1,0,3.1-1.4,3.1-3.2v-5.6h-0.8v5.5c-0.1,1.6-0.9,2.5-2.4,2.5
		c-1.4,0-2.3-0.9-2.4-2.5v-5.5H48.8L48.8,32.6z"/>
	<polygon points="57.4,41.2 58.2,41.2 58.2,33.8 58.2,33.8 62.8,41.2 63.8,41.2 63.8,32.6 63,32.6 63,40.1 63,40.1 58.3,32.6 
		57.4,32.6 	"/>
	<path d="M69.6,36.8v0.7h2.1v2.8c-0.6,0.2-1.3,0.4-1.9,0.4c-2.3,0-3.2-1.6-3.2-3.8c0-1.8,0.8-3.8,2.8-3.8c1,0,2,0.5,2.1,1.6h0.9
		c-0.1-1.5-1.6-2.3-3-2.3c-2.5,0-3.7,2.3-3.7,4.5c0,2.6,1.3,4.5,3.7,4.5c1.1,0,2-0.1,3.1-0.5v-4h-2.9V36.8z"/>
	<polygon class="st1" points="76.4,41.2 76.4,36.7 80.5,41.2 81.6,41.2 77.3,36.5 81.2,32.6 80.3,32.6 76.4,36.4 76.4,32.6 
		75.6,32.6 75.6,41.2 	"/>
	<polygon class="st2" points="76.4,41.2 76.4,36.7 80.5,41.2 81.6,41.2 77.3,36.5 81.2,32.6 80.3,32.6 76.4,36.4 76.4,32.6 
		75.6,32.6 75.6,41.2 	"/>
	<path d="M82.8,32.6v5.6c0,1.8,1.1,3.2,3.1,3.2c2.1,0,3.1-1.4,3.1-3.2v-5.6h-0.8v5.5c-0.1,1.6-0.9,2.5-2.4,2.5
		c-1.4,0-2.3-0.9-2.4-2.5v-5.5H82.8L82.8,32.6z"/>
	<path class="st2" d="M82.8,32.6v5.6c0,1.8,1.1,3.2,3.1,3.2c2.1,0,3.1-1.4,3.1-3.2v-5.6h-0.8v5.5c-0.1,1.6-0.9,2.5-2.4,2.5
		c-1.4,0-2.3-0.9-2.4-2.5v-5.5H82.8L82.8,32.6z"/>
	<polygon points="91.3,41.2 92.1,41.2 92.1,33.8 92.1,33.8 96.7,41.2 97.7,41.2 97.7,32.6 96.9,32.6 96.9,40.1 96.9,40.1 92.2,32.6 
		91.3,32.6 	"/>
	<polygon class="st2" points="91.3,41.2 92.1,41.2 92.1,33.8 92.1,33.8 96.7,41.2 97.7,41.2 97.7,32.6 96.9,32.6 96.9,40.1 
		96.9,40.1 92.2,32.6 91.3,32.6 	"/>
	<path d="M105.3,38.9c0-3-4.8-1.9-4.8-4.3c0-1,1.1-1.5,2-1.5s1.8,0.3,1.9,1.3h0.8c-0.2-1.6-1.7-2-2.8-2c-1.4,0-2.7,0.8-2.7,2.3
		c0,1.9,2.1,2.3,3.5,2.8c0.7,0.2,1.3,0.6,1.3,1.5c0,1.1-1.1,1.6-2.1,1.6c-1.2,0-2.1-0.4-2.1-1.7h-0.8c0,1.4,1.2,2.4,2.6,2.4
		C103.7,41.3,105.3,40.8,105.3,38.9L105.3,38.9z"/>
	<path class="st2" d="M105.3,38.9c0-3-4.8-1.9-4.8-4.3c0-1,1.1-1.5,2-1.5s1.8,0.3,1.9,1.3h0.8c-0.2-1.6-1.7-2-2.8-2
		c-1.4,0-2.7,0.8-2.7,2.3c0,1.9,2.1,2.3,3.5,2.8c0.7,0.2,1.3,0.6,1.3,1.5c0,1.1-1.1,1.6-2.1,1.6c-1.2,0-2.1-0.4-2.1-1.7h-0.8
		c0,1.4,1.2,2.4,2.6,2.4C103.7,41.3,105.3,40.8,105.3,38.9L105.3,38.9z"/>
	<polygon points="108.7,41.2 109.5,41.2 109.5,33.3 112.2,33.3 112.2,32.6 106,32.6 106,33.3 108.7,33.3 	"/>
	<polygon class="st2" points="108.7,41.2 109.5,41.2 109.5,33.3 112.2,33.3 112.2,32.6 106,32.6 106,33.3 108.7,33.3 	"/>
	<polygon points="114.3,41.2 114.3,37 118.2,37 118.2,36.3 114.3,36.3 114.3,33.3 118.4,33.3 118.4,32.6 113.5,32.6 113.5,41.2 	"/>
	<polygon class="st2" points="114.3,41.2 114.3,37 118.2,37 118.2,36.3 114.3,36.3 114.3,33.3 118.4,33.3 118.4,32.6 113.5,32.6 
		113.5,41.2 	"/>
	<path class="st1" d="M120.6,36.9c0-1.9,0.9-3.8,3-3.8s3,1.9,3,3.8s-0.9,3.8-3,3.8S120.6,38.8,120.6,36.9L120.6,36.9z M127.4,36.9
		c0-2.7-1.4-4.5-3.8-4.5c-2.5,0-3.8,1.8-3.8,4.5s1.4,4.5,3.8,4.5C126.1,41.3,127.4,39.5,127.4,36.9L127.4,36.9z"/>
	<path class="st2" d="M120.6,36.9c0-1.9,0.9-3.8,3-3.8s3,1.9,3,3.8s-0.9,3.8-3,3.8S120.6,38.8,120.6,36.9L120.6,36.9z M127.4,36.9
		c0-2.7-1.4-4.5-3.8-4.5c-2.5,0-3.8,1.8-3.8,4.5s1.4,4.5,3.8,4.5C126.1,41.3,127.4,39.5,127.4,36.9L127.4,36.9z"/>
	<polygon points="129.3,41.2 130.1,41.2 130.1,33.8 130.1,33.8 134.7,41.2 135.7,41.2 135.7,32.6 134.9,32.6 134.9,40.1 134.9,40.1 
		130.2,32.6 129.3,32.6 	"/>
	<polygon class="st2" points="129.3,41.2 130.1,41.2 130.1,33.8 130.1,33.8 134.7,41.2 135.7,41.2 135.7,32.6 134.9,32.6 
		134.9,40.1 134.9,40.1 130.2,32.6 129.3,32.6 	"/>
	<path class="st1" d="M138.9,40.4v-7.1h1.2c2.4-0.1,3.9,1,3.9,3.6c0,2.2-1,3.6-3.4,3.6L138.9,40.4L138.9,40.4z M138.1,32.6v8.6h2.3
		c2.8,0,4.4-1.4,4.4-4.3c0-2.8-1.6-4.3-4.4-4.3H138.1L138.1,32.6z"/>
	<path class="st2" d="M138.9,40.4v-7.1h1.2c2.4-0.1,3.9,1,3.9,3.6c0,2.2-1,3.6-3.4,3.6L138.9,40.4L138.9,40.4z M138.1,32.6v8.6h2.3
		c2.8,0,4.4-1.4,4.4-4.3c0-2.8-1.6-4.3-4.4-4.3H138.1L138.1,32.6z"/>
	<path d="M152,38.9c0-3-4.8-1.9-4.8-4.3c0-1,1.1-1.5,2-1.5s1.8,0.3,1.9,1.3h0.8c-0.2-1.6-1.7-2-2.8-2c-1.4,0-2.7,0.8-2.7,2.3
		c0,1.9,2.1,2.3,3.5,2.8c0.7,0.2,1.3,0.6,1.3,1.5c0,1.1-1.1,1.6-2.1,1.6c-1.2,0-2.1-0.4-2.1-1.7h-0.8c0,1.4,1.2,2.4,2.6,2.4
		C150.4,41.3,152,40.8,152,38.9L152,38.9z"/>
	<path class="st2" d="M152,38.9c0-3-4.8-1.9-4.8-4.3c0-1,1.1-1.5,2-1.5s1.8,0.3,1.9,1.3h0.8c-0.2-1.6-1.7-2-2.8-2
		c-1.4,0-2.7,0.8-2.7,2.3c0,1.9,2.1,2.3,3.5,2.8c0.7,0.2,1.3,0.6,1.3,1.5c0,1.1-1.1,1.6-2.1,1.6c-1.2,0-2.1-0.4-2.1-1.7h-0.8
		c0,1.4,1.2,2.4,2.6,2.4C150.4,41.3,152,40.8,152,38.9L152,38.9z"/>
</g>
</svg>
