<?xml version="1.0" encoding="utf-8"?>
<!-- Generator: Adobe Illustrator 24.3.0, SVG Export Plug-In . SVG Version: 6.00 Build 0)  -->
<svg version="1.1" id="Layer_1" xmlns="http://www.w3.org/2000/svg" xmlns:xlink="http://www.w3.org/1999/xlink" x="0px" y="0px"
	 viewBox="0 0 537.3 178.3" style="enable-background:new 0 0 537.3 178.3;" xml:space="preserve">
<style type="text/css">
	.st0{clip-path:url(#SVGID_2_);}
</style>
<g>
	<g>
		<g>
			<g>
				<g>
					<defs>
						<rect id="SVGID_1_" x="-29" y="-52.6" width="595.3" height="283.5"/>
					</defs>
					<clipPath id="SVGID_2_">
						<use xlink:href="#SVGID_1_"  style="overflow:visible;"/>
					</clipPath>
					<path class="st0" d="M506.8,81.2h-3.9v14c0,1,0.1,2,0.1,2h-0.1c0,0-0.5-1.1-1-2l-7.7-14h-4.9v22h3.9V88.7c0-1-0.1-2-0.1-2h0.1
						c0,0,0.5,1.1,1,2l8.1,14.5h4.5V81.2L506.8,81.2z M480.6,81.2h-4.2v22h4.2V81.2z M468.9,99.6H459v-6.7h8.6v-3.5H459v-4.8h9.5
						l0.6-3.5h-14.3v22h14.7L468.9,99.6z M442.6,87.3c0,2.1-1.5,2.8-3.6,2.8h-4.3v-5.5h4.3C441.1,84.5,442.6,85.2,442.6,87.3
						 M442.1,93.1c1.8-0.3,4.7-1.7,4.7-5.8c0-4-2.9-6.1-7.7-6.1h-8.8v22h4.2v-9.8h3.1l5.7,9.7h4.8L442.1,93.1z M422.9,99.6h-9.8
						v-6.7h8.6v-3.5h-8.6v-4.8h9.5l0.6-3.5h-14.3v22h14.7L422.9,99.6z M398.6,81.2l-3.8,12.7c-0.6,2.1-1.5,5.5-1.5,5.5h-0.1
						c0,0-0.9-3.4-1.5-5.5l-3.8-12.7h-4.4l7.1,22h5.3l7.1-22H398.6z M362.9,81.2v3.5h6.3v18.5h4.2V84.7h6l0.6-3.5H362.9z
						 M358.5,96.8c0-4.2-3.7-5.9-6.1-6.7l-2.6-0.8c-1.7-0.5-3.1-1.2-3.1-2.8S348,84,350,84s4.1,1.5,4.9,3.3l3-2
						c-0.8-1.9-3.6-4.6-7.9-4.6c-4.4,0-7.5,2.4-7.5,6.1c0,3.8,3,5.4,6,6.4l2.6,0.8c1.9,0.6,3.2,1.3,3.2,3.2s-1.5,2.9-3.6,2.9
						c-2,0-4.4-1.2-5.6-4.4l-3.5,1.8c1.3,3.2,4.4,6,9,6C355.3,103.6,358.5,101,358.5,96.8 M334.9,81.2H331v14c0,1,0.1,2,0.1,2H331
						c0,0-0.5-1.1-1-2l-7.7-14h-4.9v22h3.9V88.7c0-1-0.1-2-0.1-2h0.1c0,0,0.5,1.1,1,2l8.1,14.5h4.5V81.2z M308.9,81.2h-4.2v13.6
						c0,3.3-1.2,5.2-4.5,5.2s-4.5-1.9-4.5-5.2V81.2h-4.2v13.9c0,5.6,3.1,8.5,8.7,8.5s8.7-2.9,8.7-8.5V81.2z M277.5,89.7l7.8-8.5
						h-4.8l-8.4,9.5H272v-9.5h-4.2v22h4.2v-7.5l2.7-3l6.1,10.5h4.8L277.5,89.7z M244.8,87.3c0,2.1-1.5,2.8-3.6,2.8h-4.4v-5.5h4.4
						C243.2,84.5,244.8,85.2,244.8,87.3 M244.3,93.1c1.8-0.3,4.7-1.7,4.7-5.8c0-4-2.9-6.1-7.7-6.1h-8.8v22h4.2v-9.8h3.1l5.7,9.7h4.8
						L244.3,93.1z M225.1,99.6h-9.8v-6.7h8.6v-3.5h-8.6v-4.8h9.5l0.6-3.5h-14.3v22h14.7L225.1,99.6z M202.5,81.2h-4.2v8.3h-9.2v-8.3
						H185v22h4.2V93h9.2v10.2h4.2L202.5,81.2L202.5,81.2z M174.2,95.7c-0.4,1.7-1.7,4.4-5.2,4.4s-5.6-3.1-5.6-7.9
						c0-4.9,2.1-7.9,5.6-7.9s4.7,2.9,4.9,4.2l3.7-1.3c-0.2-1.3-2.1-6.4-8.6-6.4s-10,5.1-10,11.5s3.3,11.5,9.8,11.5s8.6-5,9-6.6
						L174.2,95.7z M153.3,96.8c0-4.2-3.7-5.9-6.1-6.7l-2.6-0.8c-1.7-0.5-3.1-1.2-3.1-2.8s1.3-2.5,3.3-2.5s4.1,1.5,4.9,3.3l3-2
						c-0.8-1.9-3.6-4.6-7.9-4.6c-4.4,0-7.5,2.4-7.5,6.1c0,3.8,3,5.4,6,6.4l2.6,0.8c1.9,0.6,3.2,1.3,3.2,3.2s-1.5,2.9-3.6,2.9
						c-2,0-4.4-1.2-5.6-4.4l-3.5,1.8c1.3,3.2,4.4,6,9,6C150,103.6,153.3,101,153.3,96.8 M129.6,81.2h-4.2v22h4.2V81.2z M116.8,81.2
						h-3.9v14c0,1,0.1,2,0.1,2h-0.1c0,0-0.5-1.1-1-2l-7.7-14h-4.9v22h3.9V88.7c0-1-0.1-2-0.1-2h0.1c0,0,0.5,1.1,1,2l8.1,14.5h4.5
						V81.2L116.8,81.2z M92.5,99.6h-8.7V81.1h-4.2v22h13.5L92.5,99.6z M68.2,92.2c0,4.2-1.7,8-5.8,8c-4.2,0-5.8-3.8-5.8-8
						s1.7-8,5.8-8S68.2,87.9,68.2,92.2 M72.5,92.2c0-6.5-3.6-11.5-10.1-11.5s-10.1,4.9-10.1,11.5s3.6,11.5,10.1,11.5
						S72.5,98.7,72.5,92.2 M61.2,74.6h-3.1V79h3.1V74.6z M66.6,74.6h-3.1V79h3.1V74.6z M40.2,89.7l7.8-8.5h-4.8l-8.4,9.5h-0.1v-9.5
						h-4.2v22h4.2v-7.5l2.7-3l6.1,10.5h4.8L40.2,89.7z"/>
				</g>
			</g>
		</g>
	</g>
</g>
</svg>
