<?xml version="1.0" encoding="utf-8"?>
<!-- Generator: Adobe Illustrator 24.3.0, SVG Export Plug-In . SVG Version: 6.00 Build 0)  -->
<svg version="1.1" id="Ebene_1" xmlns="http://www.w3.org/2000/svg" xmlns:xlink="http://www.w3.org/1999/xlink" x="0px" y="0px"
	 viewBox="0 0 368.5 166.2" style="enable-background:new 0 0 368.5 166.2;" xml:space="preserve">
<style type="text/css">
	.st0{fill:#FFFFFF;}
	.st1{fill-rule:evenodd;clip-rule:evenodd;fill:#FFFFFF;}
</style>
<g>
	<path d="M17.6,139.8v-17.6h3.1v17.6H17.6z M27.1,139.8l-6.2-9.2l6.7-8.4h3.3l-6.8,8l6.9,9.7h-3.9V139.8z"/>
	<path d="M40.3,139.8V139c-2.2,0.8-3.1,1.1-4.2,1.1c-1.2,0-2.4-0.5-3-1.2c-0.6-0.8-0.9-1.7-0.9-3.6v-8.2h3v7.9c0,2.2,0.6,3,2.6,3
		c0.7,0,1.4-0.1,2.4-0.3v-10.6h3v12.8L40.3,139.8L40.3,139.8z"/>
	<path d="M46.7,139.8v-19.3h3v19.3H46.7z"/>
	<path d="M57.1,139.9c-2.6,0-3.6-1-3.6-3.6v-7.6h-1.7v-1.8h1.7V124l3-1.1v4h3.9v1.8h-3.9v7c0,1.5,0.5,2,2,2c0.6,0,1.2-0.1,1.9-0.2
		v1.7C58.4,139.8,57.8,139.9,57.1,139.9z"/>
	<path d="M70.6,139.8V139c-2.2,0.8-3.1,1.1-4.2,1.1c-1.2,0-2.4-0.5-3-1.2c-0.6-0.8-0.9-1.7-0.9-3.6v-8.2h3v7.9c0,2.2,0.6,3,2.6,3
		c0.7,0,1.4-0.1,2.4-0.3v-10.6h3v12.8L70.6,139.8L70.6,139.8z"/>
	<path d="M81.8,129.1c-0.5,0-1.3,0.1-1.9,0.2v10.4h-3v-12.8h2.9v0.9c1.3-0.6,2.7-1.1,3.2-1.1s1,0.1,1.4,0.3v2.6
		C83.7,129.3,82.9,129.1,81.8,129.1z"/>
	<path d="M93,139.8V139c-1.9,0.8-2.7,1-3.6,1c-2.3,0-3.9-1.5-3.9-3.8s1.3-3.6,3.9-3.8c1.1-0.1,2.1-0.1,3.5-0.1v-1.4
		c0-1.4-0.6-2-2.3-2c-1.1,0-2.7,0.2-4,0.4v-1.6c2.4-0.6,3.8-0.8,5-0.8c1.3,0,2.5,0.4,3.2,1c0.7,0.7,1,1.6,1,3.5v8.5L93,139.8
		L93,139.8z M92.9,133.8c-1.4,0-1.7,0-2.3,0.1c-1.3,0.2-2,0.9-2,2c0,1.3,0.8,2,2.4,2c0.6,0,1.3-0.1,1.9-0.2V133.8z"/>
	<path d="M115.2,139.8v-7.9c0-2.2-0.6-3-2.6-3c-0.8,0-1.6,0.1-2.7,0.4c0.2,0.6,0.2,0.9,0.2,1.5v9h-3v-8.3c0-1.9-0.6-2.5-2.5-2.5
		c-0.7,0-1.7,0.1-2.5,0.3v10.6h-3v-12.8h2.9v0.8c2.3-0.8,3.2-1.1,4.3-1.1c1.2,0,2.2,0.4,2.9,1.1c0.1,0,0.2-0.1,0.3-0.1
		c2.5-0.9,3.4-1,4.4-1c3,0,4.2,1.3,4.2,4.8v8.3h-2.9C115.2,139.9,115.2,139.8,115.2,139.8z"/>
	<path d="M125.6,139.9c-2.6,0-3.6-1-3.6-3.6v-7.6h-1.7v-1.8h1.7V124l3-1.1v4h3.9v1.8H125v7c0,1.5,0.5,2,2,2c0.6,0,1.2-0.1,1.9-0.2
		v1.7C126.9,139.8,126.3,139.9,125.6,139.9z"/>
</g>
<g>
	<polygon class="st0" points="22,27.2 94.5,27.2 94.5,99.7 22,99.7 	"/>
	<polygon points="94.5,27.2 348.2,27.2 348.2,99.7 330,99.7 321,45.2 311.9,99.7 302.9,45.2 293.8,99.7 94.5,99.7 	"/>
	<path class="st0" d="M119.2,70.4c0-3-1.3-5-4.3-6.6l-3.6-1.9c-2.4-1.3-3.2-2.1-3.2-3.6c0-2.3,1.4-3.3,4.5-3.3
		c1.8,0,3.7,0.3,5.7,0.9v-2.7c-2.9-0.9-4.6-1.2-6.3-1.2c-5.2,0-8.2,2.5-8.2,6.9c0,2.8,1.3,4.7,4.2,6.3l4.4,2.4
		c1.7,0.9,2.4,1.9,2.4,3.4c0,2.5-1.6,3.7-5.1,3.7c-1.8,0-3.5-0.2-6.2-0.9v2.8c3.3,0.9,5.4,1.3,7,1.3C115.9,77.9,119.2,75,119.2,70.4
		L119.2,70.4z"/>
	<path class="st0" d="M133,76.9v-2.4c-0.9,0.2-1.9,0.3-2.7,0.3c-2.2,0-2.9-0.7-2.9-2.9V61.8h5.6v-2.5h-5.6v-5.8l-4.3,1.6v4.2h-2.5
		v2.5h2.5v10.8c0,3.8,1.4,5.2,5.1,5.2C129.3,77.8,130.2,77.6,133,76.9L133,76.9z"/>
	<path class="st1" d="M150,77.5V65.3c0-2.8-0.4-4-1.4-5c-1-0.9-2.7-1.4-4.6-1.4c-1.6,0-3.7,0.4-7.2,1.2v2.3c1.8-0.3,4.1-0.6,5.7-0.6
		c2.4,0,3.3,0.8,3.3,2.9v2c-1.9,0-3.4,0.1-5,0.2c-3.8,0.4-5.7,2.2-5.7,5.5s2.2,5.4,5.5,5.4c1.4,0,2.4-0.3,5.2-1.4v1.1L150,77.5
		L150,77.5z M145.9,74.6c-0.9,0.2-1.9,0.3-2.8,0.3c-2.3,0-3.5-1-3.5-2.9c0-1.6,1-2.6,2.9-2.8c1-0.1,1.3-0.1,3.4-0.2L145.9,74.6
		L145.9,74.6z"/>
	<path class="st1" d="M170.7,77.5V49.9h-4.3v10c-1.4-0.6-2.6-0.9-3.9-0.9c-5,0-8.7,4.2-8.7,9.9c0,5.5,2.9,9,7.5,9
		c1.2,0,2.4-0.3,5.3-1.5v1.1L170.7,77.5L170.7,77.5z M166.4,74.4c-1.1,0.2-1.9,0.3-2.9,0.3c-3.4,0-5.3-2.3-5.3-6.2
		c0-4.3,2.1-6.7,5.8-6.7c0.8,0,1.8,0.1,2.4,0.2V74.4L166.4,74.4z"/>
	<path class="st0" d="M186,76.9v-2.4c-0.9,0.2-1.9,0.3-2.7,0.3c-2.2,0-2.9-0.7-2.9-2.9V61.8h5.6v-2.5h-5.6v-5.8l-4.3,1.6v4.2h-2.5
		v2.5h2.5v10.8c0,3.8,1.4,5.2,5.1,5.2C182.3,77.8,183.2,77.6,186,76.9L186,76.9z"/>
	<path class="st1" d="M215.6,77.5l-9.9-13.8l9.7-11.4h-4.8l-9.5,12l8.9,13.2L215.6,77.5L215.6,77.5z M200.9,77.5V52.3h-4.4v25.3
		L200.9,77.5L200.9,77.5z"/>
	<path class="st1" d="M231.7,53.9c0-1.5-0.8-2.2-2.2-2.2c-1.5,0-2.3,0.8-2.3,2.3s0.7,2.1,2.3,2.1C230.8,56.1,231.7,55.3,231.7,53.9
		L231.7,53.9z M224.9,53.9c0-1.5-0.8-2.2-2.2-2.2c-1.5,0-2.3,0.8-2.3,2.3s0.7,2.1,2.3,2.1C224.1,56.1,224.9,55.3,224.9,53.9
		L224.9,53.9z M235,68.1c0-5.8-3.3-9.3-8.8-9.3c-5.7,0-9.1,3.7-9.1,10c0,5.7,3.4,9.2,8.8,9.2C231.6,78,235,74.3,235,68.1L235,68.1z
		 M230.5,68.3c0,4.6-1.6,7.1-4.4,7.1c-3,0-4.5-2.4-4.5-7.2c0-4.4,1.6-6.9,4.4-6.9C229,61.3,230.5,63.8,230.5,68.3L230.5,68.3z"/>
	<polygon class="st0" points="243.1,77.5 243.1,49.9 238.9,49.9 238.9,77.5 	"/>
	<path class="st1" d="M263.9,77.5V65.7c0-2.6-0.3-4-1.3-5.1c-0.9-1.1-2.6-1.8-4.3-1.8c-1.6,0-2.8,0.3-6,1.5v-1.1h-4.2v18.3h4.3V62.4
		c1.4-0.3,2.5-0.4,3.5-0.4c2.8,0,3.8,1.1,3.8,4.3v11.3L263.9,77.5L263.9,77.5L263.9,77.5z"/>
	<polygon points="18.4,99.7 18.4,27.2 22,27.2 22,99.7 	"/>
	<path d="M90.8,67.1c0.9-1.3-0.5-2.2-1.4-0.4l-0.9,1.9c-0.1,0.3-0.2,0.2-0.4,0.2c-0.1-0.1-0.8-0.4-1-0.3c0,0.2,0.5,0.7,0.7,0.9
		L75.9,86.5l0.8,0.6l11.9-17.2c0.1,0.1,0.9,0.4,1,0.3c0-0.2-0.5-0.7-0.6-0.8c-0.1-0.1-0.2-0.2,0-0.4l1.5-1.5
		C90.6,67.4,90.7,67.2,90.8,67.1L90.8,67.1z M88.2,68.3l0.8-1.8c1.2-2.6,3.7-0.8,1.7,1.2l-1.4,1.4c0.3,0.2,0.9,0.9,0.6,1.3
		s-0.9,0.1-1.2,0l-12,17.1l-1.5-1l12-17.1c-0.2-0.2-0.7-0.8-0.4-1.1C87.1,67.8,87.9,68.2,88.2,68.3L88.2,68.3z M49.7,54.5
		c-6.2,2.6-12.6-3.9-9.4-10.1c2.9-5.8,11.1-5,13.4,0.6c0.1,0.3-0.3,0.4-0.4,0.2c-2.1-5.3-9.8-6-12.6-0.5c-3,5.9,3.1,12,8.9,9.5
		C49.8,54,50,54.4,49.7,54.5L49.7,54.5z M42.7,83.7c0.8-0.5,1.7,0.7,0.9,1.3l-3.5,2.4L37.8,89c-0.8,0.5-1.7-0.7-0.9-1.3l1.8-1.3
		L25.3,67.1c-0.2-0.2,0.2-1.6,0.3-1.8c0,0,0.5,0.1,0.9,0.1c0.2,0,0.8,0.1,0.9,0.3L40.9,85L42.7,83.7L42.7,83.7z M43,84l-2.2,1.5
		L27,66c-0.4-0.1-0.8-0.2-1.2-0.2c-0.1,0.4-0.2,0.8-0.2,1.2l13.8,19.6l-2.2,1.6c-0.3,0.2,0.1,0.8,0.4,0.6l2.3-1.6l3.5-2.4
		C43.7,84.4,43.3,83.8,43,84L43,84z M63.9,38l-3.6,2.5l-1.9-2.6l-1.9,2.7l-3.6-2.5l1.4,3.8h8.4L63.9,38L63.9,38z M60.1,39.5l0.3,0.4
		l2.4-3.2c-0.1-0.1-0.3-0.2-0.4-0.3L60.1,39.5L60.1,39.5z M58.1,37.5l0.3-0.4l0.2,0.3v-1.5h-0.5V37.5L58.1,37.5z M53,37.7
		c0.1-0.3,0.3-0.6,0.6-0.8l-0.1-0.2c0.4-0.3,0.7-0.6,1.1-0.8l2.4,3.3l0.8-1.1v-2.8c0,0,0-0.2,0.3-0.2c0.2,0,0.3-0.4,0.2-0.6
		c-0.1-0.1-0.5,0-0.6,0.2s-0.3,0.2-0.3,0.2h-0.6v-1.1h0.6c0,0,0.2,0,0.2,0.2c0,0.1,0.4,0.3,0.6,0.2c0.1-0.1,0-0.5-0.2-0.6
		s-0.2-0.2-0.2-0.2v-0.6h1.1v0.6c0,0,0,0.2-0.2,0.2c-0.1,0-0.3,0.4-0.2,0.6c0.1,0.1,0.5,0,0.6-0.2s0.2-0.2,0.2-0.2h0.6v1.1h-0.6
		c0,0-0.2,0-0.2-0.2c0-0.1-0.4-0.3-0.6-0.2c-0.1,0.1,0,0.6,0.2,0.6c0.3,0,0.3,0.2,0.3,0.2v2.8l0.8,1.1l2.3-3.3
		c0.4,0.2,0.8,0.5,1.1,0.8l-0.1,0.2c0.3,0.3,0.4,0.6,0.6,0.9l1-0.7l-1.9,5.3h-8.9L52.1,37L53,37.7L53,37.7z M54,36.7l2.4,3.2
		l0.3-0.4l-2.2-3.1C54.3,36.5,54.2,36.6,54,36.7L54,36.7z M67.1,54.5c-0.3-0.1-0.1-0.5,0.2-0.4c5.8,2.4,11.9-3.7,8.9-9.5
		c-2.8-5.5-10.5-4.7-12.6,0.5c-0.1,0.3-0.5,0.1-0.4-0.2c2.3-5.6,10.4-6.3,13.4-0.6C79.6,50.5,73.2,57,67.1,54.5L67.1,54.5z
		 M40.5,89.8C40.6,89.8,40.6,89.8,40.5,89.8l2.4-1.6l0.6-1l-1.2,0.3l-2.2,1.4c-0.2,0.1-0.2,0.4-0.1,0.6
		C40.1,89.8,40.4,89.9,40.5,89.8L40.5,89.8z M41.1,91.4c-0.2,0-0.5-0.2-0.6-0.4c-0.2-0.2-0.2-0.5-0.2-0.7c-0.2,0-0.5-0.2-0.6-0.4
		c-0.3-0.4-0.2-0.9,0.2-1.2l2.4-1.7l2.2-0.5L43.6,88l1.7-0.4l-0.9,1.5l1.7-0.4l-1.2,1.9l-2.3,1.6l0,0c-0.4,0.3-0.9,0.1-1.2-0.3
		C41.1,91.9,41,91.6,41.1,91.4L41.1,91.4z M41.7,91.2L41.7,91.2C41.6,91.2,41.6,91.3,41.7,91.2c-0.2,0.2-0.2,0.4-0.1,0.6
		c0.2,0.2,0.4,0.3,0.6,0.2l0,0l2.3-1.6l0.7-1.1L44,89.6L41.7,91.2L41.7,91.2z M43.7,89.3l0.6-1l-1.2,0.3l-2.3,1.6l0,0c0,0,0,0-0.1,0
		c-0.1,0.1-0.2,0.4,0,0.6s0.4,0.3,0.6,0.2l0,0L43.7,89.3L43.7,89.3z M45,91.6c0.7,0,1.3,0.6,1.3,1.3c0,0.7-0.6,1.3-1.3,1.3
		s-1.3-0.6-1.3-1.3S44.3,91.6,45,91.6L45,91.6z M45,92c-0.5,0-0.9,0.4-0.9,0.9s0.4,0.9,0.9,0.9s0.9-0.4,0.9-0.9
		C46,92.4,45.6,92,45,92L45,92z M76.2,89.8c0.2,0.1,0.4,0,0.6-0.2s0.1-0.5-0.1-0.6l-2.3-1.6l-1.2-0.3l0.6,1L76.2,89.8L76.2,89.8
		L76.2,89.8z M75.7,91.4c0.1,0.2,0,0.5-0.2,0.7c-0.3,0.4-0.8,0.5-1.2,0.3l0,0L72,90.8l-1.2-1.9l1.7,0.4l-0.9-1.5l1.7,0.4l-0.9-1.5
		l2.2,0.5l2.3,1.6c0.4,0.3,0.4,0.8,0.2,1.2c-0.2,0.2-0.4,0.4-0.6,0.4c0.1,0.2,0,0.5-0.2,0.7C76.2,91.2,75.9,91.3,75.7,91.4
		L75.7,91.4z M75.1,91.2l-2.3-1.6l-1.2-0.3l0.7,1.1l2.3,1.6l0,0c0.2,0.1,0.4,0.1,0.6-0.2C75.4,91.6,75.3,91.4,75.1,91.2
		C75.2,91.3,75.2,91.2,75.1,91.2L75.1,91.2L75.1,91.2z M73.1,89.3l2.3,1.6c0,0,0.1,0,0.1,0.1c0.2,0.1,0.4,0,0.6-0.2s0.1-0.5,0-0.6
		c0,0,0,0-0.1,0l0,0l-2.3-1.6l-1.2-0.3L73.1,89.3L73.1,89.3z M71.7,91.6c0.7,0,1.3,0.6,1.3,1.3c0,0.7-0.6,1.3-1.3,1.3
		c-0.7,0-1.3-0.6-1.3-1.3S71,91.6,71.7,91.6L71.7,91.6z M71.7,92c-0.5,0-0.9,0.4-0.9,0.9s0.4,0.9,0.9,0.9s0.9-0.4,0.9-0.9
		C72.7,92.4,72.3,92,71.7,92L71.7,92z M50.5,58.9v6.4h15.8v-6.4H50.5L50.5,58.9z M50.5,70.5c0,4,3.5,6.9,7.9,6.9s7.9-3,7.9-7v-4.5
		H50.5V70.5L50.5,70.5z M74.7,46.5c1.2,0.6,1.2,1.7,0.9,2.8c-1.6-0.8-3.3-1-5-0.4c0,0-0.1,0-0.2,0.1c1,0.4,2.1,0.7,3.1,0.5l0.6-0.1
		c-0.3,0.3-0.6,0.6-0.9,0.9c-0.9,0.6-1.3,0.4-2.2,0.2c-0.6-0.1-1.1,0-1.6,0.1c-0.1,0.1-0.2,0.2-0.3,0.2c-6.1,1.4-4.8,6.6-1.5,7.8
		c2.1,0.8,5.6-0.1,5.5-0.8c0-0.2,0-0.6-0.1-0.8c0.3-0.3,0.4-0.5,0.5-0.5s0.3,0.7,1.5,1.3c7.7,3.5,14.5,3,14.5,3.1
		c0.5,0.1-2.2,3.2-3.6,3.6c-1.1,0.3-4.2,0.3-12.3-1.8c-0.4-0.1-0.9-0.5-0.9-0.8C72.4,62,72,62,72,62c0.3,1.4,0.7,2,4.1,3.5
		c3.2,1.3,7.2,2.5,7.9,2.8c0.6,0.2-0.7,2.1-3.1,2.4c-1.5,0.1-5-0.7-9.1-2c-0.4-0.1-0.6-0.6-0.7-0.9c-0.2,0.1-0.5,0.1-0.5,0.1
		c0.3,0.9,0.4,1.9,2.5,3.4c1.9,1.4,5.3,2.7,6.7,3.1c0.8,0.3-1.4,2.1-2.9,1.9c-2.3-0.2-5.5-1.5-8.2-3c-0.3-0.2-0.5-0.8-0.5-0.8
		c-0.2,0.1-0.4,0.1-0.4,0.1s-0.1,1.1,0.3,1.8c1.2,1.8,2.9,3.1,7.9,5.2c0.9,0.4-1,1.7-2.5,1.6c-3.2-0.1-7.1-2-9-3.5
		c-0.4-0.3-0.5-1-0.5-1s-0.4,0.2-0.7,0.4c0,0,0.1,1.1,0.9,2.2c0.7,1,1.5,1.8,2.5,2.7c1.4,1.3,5.1,4.5,5.1,4.5
		c-0.2,0.2-1,1.4-1.1,1.6c-2.1-1.7-5.3-3.4-6.4-4c-1.3-0.7-3.8-2-3.5-1.2c0.9,2.4,2.3,5.2,2.7,6c-0.9-0.4-2.5-0.7-3-0.7
		c-0.1,0.1-0.2,0.4-0.3,0.4l0.4,0.2c-1.2,2.9-2.4,4.8-2.4,4.8s-1.2-1.9-2.4-4.8l0.4-0.2c-0.1,0-0.2-0.3-0.3-0.4
		c-0.5,0.1-2,0.3-3,0.7c0.4-0.7,1.8-3.6,2.7-6c0.3-0.8-2.2,0.5-3.5,1.2c-1.2,0.6-4.3,2.3-6.4,4c-0.1-0.2-1-1.4-1.1-1.6
		c0,0,3.6-3.1,5.1-4.5c0.9-0.9,1.7-1.7,2.5-2.7c0.8-1.1,0.9-2.2,0.9-2.2c-0.3-0.2-0.7-0.4-0.7-0.4s0,0.7-0.5,1
		c-1.9,1.5-5.7,3.5-9,3.5c-1.5,0-3.4-1.3-2.5-1.6c5.1-2.1,6.7-3.4,7.9-5.2c0.4-0.6,0.3-1.8,0.3-1.8s-0.2,0-0.4-0.1
		c0,0-0.2,0.6-0.5,0.8c-2.7,1.5-6,2.8-8.2,3c-1.5,0.1-3.7-1.7-2.9-1.9c1.4-0.5,4.8-1.8,6.7-3.1c2.2-1.5,2.3-2.5,2.5-3.4
		c0,0-0.3,0-0.5-0.1c-0.1,0.3-0.3,0.7-0.7,0.9c-4,1.3-7.6,2.2-9.1,2c-2.4-0.3-3.7-2.2-3.1-2.4c0.6-0.2,4.7-1.4,7.9-2.8
		c3.4-1.5,3.9-2.1,4.1-3.5c0,0-0.4,0-0.7-0.1c0.1,0.3-0.4,0.6-0.9,0.8c-8,2.1-11.2,2.1-12.3,1.8c-1.4-0.4-4.1-3.5-3.6-3.6
		c0.1,0,6.8,0.4,14.5-3.1c1.2-0.5,1.4-1.3,1.5-1.3s0.2,0.3,0.5,0.5c0,0.2,0,0.6-0.1,0.8c-0.1,0.7,3.4,1.6,5.5,0.8
		c3.3-1.3,4.6-6.5-1.5-7.8c-0.1,0-0.2-0.1-0.3-0.2c-0.5-0.1-1-0.1-1.6-0.1c-0.9,0.1-1.3,0.4-2.2-0.2c-0.4-0.2-0.6-0.6-0.9-0.9
		l0.6,0.1c0.9,0.2,2.1-0.1,3.1-0.5c-0.1,0-0.1,0-0.2-0.1c-1.7-0.6-3.3-0.4-5,0.4c-0.3-1.2-0.3-2.2,0.9-2.8c0.7-0.4,1.5-0.5,2.3-0.5
		c0.4-0.3,0.8-0.6,1-0.6c0.8-0.2,1.6-0.3,2.4-0.3c1.6,0,2.8,0,3.8,0.6c0.4,0.2,0.9,0.3,0.9,0.4s-0.4,0.1-0.6,0.1
		c-0.4,0.1-0.6,0.3-0.6,0.4c0.8,0.7,5.1,1,7.1,7.8c2-6.9,6.2-7.2,7.1-7.8c0.1,0-0.2-0.3-0.6-0.4c-0.2,0-0.6,0-0.6-0.1
		s0.5-0.2,0.9-0.4c1-0.5,2.2-0.6,3.8-0.6c0.8,0,1.6,0.1,2.4,0.3c0.2,0,0.6,0.3,1,0.6C73.2,46.1,74,46.2,74.7,46.5L74.7,46.5z
		 M74.5,46.9c-0.6-0.3-1.5-0.4-2.2-0.5c-0.9,0.5-1.4,1.1-1.9,2.2c1.6-0.5,3.3-0.5,4.8,0.2C75.5,47.7,75.1,47.2,74.5,46.9L74.5,46.9z
		 M72.9,50c-0.9,0-1.9-0.3-2.7-0.7c-0.1,0.3-0.2,0.6-0.3,0.8c0.4-0.1,0.9,0,1.2,0C71.8,50.2,72.1,50.5,72.9,50L72.9,50z M43.9,50
		c0.7,0.4,1,0.2,1.8,0.1c0.4,0,0.8-0.1,1.2,0c-0.1-0.2-0.2-0.5-0.3-0.8C45.8,49.7,44.8,50,43.9,50L43.9,50z M42.3,46.9
		c-0.6,0.3-1,0.9-0.8,1.9c1.5-0.7,3.3-0.7,4.8-0.2c-0.4-1-1-1.6-1.9-2.2C43.8,46.5,42.9,46.5,42.3,46.9L42.3,46.9z M47.4,45.8
		c-0.5,0-0.9,0.4-0.9,0.9s0.4,0.9,0.9,0.9s0.9-0.4,0.9-0.9S47.9,45.8,47.4,45.8L47.4,45.8z M69.4,45.8c-0.5,0-0.9,0.4-0.9,0.9
		s0.4,0.9,0.9,0.9s0.9-0.4,0.9-0.9C70.2,46.2,69.8,45.8,69.4,45.8L69.4,45.8z M61.4,59.9l1,1.8l0.8-1.8l0.8,1.8l1-1.8v4.4h-3.7
		L61.4,59.9L61.4,59.9z M61.7,61.1V64h3v-2.9l-0.6,1.2l-0.8-1.8l-0.8,1.8L61.7,61.1L61.7,61.1z M56.6,59.9l1,1.8l0.8-1.8l0.8,1.8
		l1-1.8v4.4h-3.7L56.6,59.9L56.6,59.9z M56.9,61.1V64h3v-2.9l-0.7,1.2l-0.8-1.8l-0.8,1.8L56.9,61.1L56.9,61.1z M52.1,61.1V64h3v-2.9
		l-0.7,1.2l-0.8-1.8l-0.8,1.8L52.1,61.1L52.1,61.1z M51.7,59.9l1,1.8l0.8-1.8l0.8,1.8l1-1.8v4.4h-3.7L51.7,59.9L51.7,59.9z
		 M60.5,75.3c0-0.5,0.7-0.6,0.6-1.3c0-1.5,0.8,0.1,1,0.8c0.1,0.6-0.2,1-0.7,1.1C60.9,75.9,60.5,75.8,60.5,75.3L60.5,75.3z
		 M54.7,75.3c0-0.5,0.7-0.6,0.6-1.3c0-1.5,0.8,0.1,1,0.8c0.1,0.6-0.2,1-0.7,1.1C55.1,75.9,54.7,75.8,54.7,75.3L54.7,75.3z
		 M63.4,68.6c0-0.5,0.7-0.6,0.6-1.3c0-1.5,0.8,0.1,1,0.8c0.1,0.6-0.2,1-0.7,1.1C63.8,69.3,63.4,69.1,63.4,68.6L63.4,68.6z
		 M60.5,68.6c0-0.5,0.7-0.6,0.6-1.3c0-1.5,0.8,0.1,1,0.8c0.1,0.6-0.2,1-0.7,1.1S60.5,69.1,60.5,68.6L60.5,68.6z M57.6,68.6
		c0-0.5,0.7-0.6,0.6-1.3c0-1.5,0.8,0.1,1,0.8c0.1,0.6-0.2,1-0.7,1.1S57.6,69.1,57.6,68.6L57.6,68.6z M54.7,68.6
		c0-0.5,0.7-0.6,0.6-1.3c0-1.5,0.8,0.1,1,0.8c0.1,0.6-0.2,1-0.7,1.1S54.7,69.1,54.7,68.6L54.7,68.6z M51.7,68.6
		c0-0.5,0.7-0.6,0.6-1.3c0-1.5,0.8,0.1,1,0.8c0.1,0.6-0.2,1-0.7,1.1C52.2,69.3,51.8,69.1,51.7,68.6L51.7,68.6z M61.9,72.1
		c0-0.5,0.7-0.6,0.6-1.3c0-1.5,0.8,0.1,1,0.8c0.1,0.6-0.2,1-0.7,1.1C62.4,72.7,62,72.6,61.9,72.1L61.9,72.1z M59,72.1
		c0-0.5,0.7-0.6,0.6-1.3c0-1.5,0.8,0.1,1,0.8c0.1,0.6-0.2,1-0.7,1.1C59.5,72.7,59.1,72.6,59,72.1L59,72.1z M56.1,72.1
		c0-0.5,0.7-0.6,0.6-1.3c0-1.5,0.8,0.1,1,0.8c0.1,0.6-0.2,1-0.7,1.1C56.6,72.7,56.1,72.6,56.1,72.1L56.1,72.1z M53.2,72.1
		c0-0.5,0.7-0.6,0.6-1.3c0-1.5,0.8,0.1,1,0.8c0.1,0.6-0.2,1-0.7,1.1C53.6,72.7,53.2,72.6,53.2,72.1L53.2,72.1z"/>
</g>
</svg>
