<?xml version="1.0" encoding="utf-8"?>
<!-- Generator: Adobe Illustrator 24.3.0, SVG Export Plug-In . SVG Version: 6.00 Build 0)  -->
<svg version="1.1" id="Layer_1" xmlns="http://www.w3.org/2000/svg" xmlns:xlink="http://www.w3.org/1999/xlink" x="0px" y="0px"
	 viewBox="0 0 224.1 88.8" style="enable-background:new 0 0 224.1 88.8;" xml:space="preserve">
<g>
	<polygon points="14.2,48.1 14.2,51.2 13.4,51.2 13.4,44.5 16.7,44.5 16.7,45.2 14.2,45.2 14.2,47.4 16.6,47.4 16.6,48.1 	"/>
	<path d="M21.1,50.5c1.1,0,1.6-0.7,1.6-1.9v-4.1h0.8v4.1c0,1.8-1,2.7-2.4,2.7c-1.5,0-2.4-0.9-2.4-2.7v-4.1h0.8v4.1
		C19.5,49.8,20.1,50.5,21.1,50.5L21.1,50.5z M20,44.5h0.8v0.9H20V44.5L20,44.5z M21.4,44.5h0.8v0.9h-0.8V44.5L21.4,44.5z"/>
	<path d="M26.2,51.2v-6.7h1.9c1.1,0,1.9,0.7,1.9,1.8c0,1.2-0.9,1.8-2,1.8l2.8,3.1h-1.1l-2.6-3v3L26.2,51.2L26.2,51.2z M27.9,47.4
		c0.8,0,1.4-0.3,1.4-1.2s-0.7-1.1-1.3-1.1h-0.8v2.3H27.9L27.9,47.4z"/>
	<path d="M38.6,44.5c2.1,0,3.5,1.3,3.5,3.4c0,2-1.7,3.2-3.7,3.2h-1.3v-6.7L38.6,44.5L38.6,44.5z M38.6,50.4c1.3,0,2.7-0.8,2.7-2.5
		c0-2.1-1.5-2.8-2.7-2.8h-0.7v5.2L38.6,50.4L38.6,50.4z"/>
	<polygon points="45.3,44.5 45.3,51.2 44.5,51.2 44.5,44.5 	"/>
	<polygon points="48.9,48.1 48.9,50.4 51.7,50.4 51.7,51.2 48.1,51.2 48.1,44.5 51.6,44.5 51.6,45.2 48.9,45.2 48.9,47.4 51.5,47.4 
		51.5,48.1 	"/>
	<path d="M58.2,51.2v-6.7h1.9c1.1,0,1.9,0.7,1.9,1.8c0,1.2-0.9,1.8-2,1.8l2.8,3.1h-1.1l-2.6-3v3L58.2,51.2L58.2,51.2z M59.8,47.4
		c0.8,0,1.4-0.3,1.4-1.2s-0.7-1.1-1.3-1.1h-0.8v2.3H59.8L59.8,47.4z"/>
	<polygon points="64.8,51.2 64.8,44.5 65.6,44.5 65.6,47.4 68.9,47.4 68.9,44.5 69.7,44.5 69.7,51.2 68.9,51.2 68.9,48.1 65.6,48.1 
		65.6,51.2 	"/>
	<polygon points="73.2,48.1 73.2,50.4 76,50.4 76,51.2 72.4,51.2 72.4,44.5 75.9,44.5 75.9,45.2 73.2,45.2 73.2,47.4 75.8,47.4 
		75.8,48.1 	"/>
	<polygon points="79.4,44.5 79.4,51.2 78.6,51.2 78.6,44.5 	"/>
	<polygon points="83.1,44.4 86.8,49.7 86.8,44.4 87.7,44.4 87.6,51.2 86.9,51.2 83.2,45.9 83.2,51.2 82.4,51.2 82.4,44.4 	"/>
	<polygon points="90.4,44.5 91.2,44.5 91.2,50.4 93.8,50.4 93.8,51.2 90.4,51.2 	"/>
	<path d="M100.1,49.8h-3.3l-0.6,1.4h-0.9l2.8-6.7h0.7l2.8,6.7h-0.9L100.1,49.8L100.1,49.8z M99.9,49l-1.4-3.4L97.1,49H99.9L99.9,49z
		"/>
	<polygon points="104,44.4 107.6,49.7 107.6,44.4 108.5,44.4 108.5,51.2 107.7,51.2 104,45.9 104,51.2 103.2,51.2 103.2,44.4 	"/>
	<path d="M112.4,44.5c2.1,0,3.5,1.3,3.5,3.4c0,2-1.7,3.2-3.7,3.2h-1.3v-6.7L112.4,44.5L112.4,44.5z M112.4,50.4
		c1.3,0,2.7-0.8,2.7-2.5c0-2.1-1.5-2.8-2.7-2.8h-0.7v5.2L112.4,50.4L112.4,50.4z"/>
	<polygon points="118.7,48.1 118.7,50.4 121.5,50.4 121.5,51.2 117.8,51.2 117.8,44.5 121.3,44.5 121.3,45.2 118.7,45.2 118.7,47.4 
		121.3,47.4 121.3,48.1 	"/>
	<path d="M130.4,50.5c1.1,0,1.6-0.7,1.6-1.9v-4.1h0.8v4.1c0,1.8-1,2.7-2.4,2.7c-1.5,0-2.4-0.9-2.4-2.7v-4.1h0.8v4.1
		C128.8,49.8,129.3,50.5,130.4,50.5L130.4,50.5z"/>
	<polygon points="135.8,44.4 139.5,49.7 139.5,44.4 140.3,44.4 140.3,51.2 139.6,51.2 135.9,45.9 135.9,51.2 135,51.2 135,44.4 	"/>
	<path d="M144.2,44.5c2.1,0,3.5,1.3,3.5,3.4c0,2-1.7,3.2-3.7,3.2h-1.3v-6.7L144.2,44.5L144.2,44.5z M144.2,50.4
		c1.3,0,2.7-0.8,2.7-2.5c0-2.1-1.5-2.8-2.7-2.8h-0.7v5.2L144.2,50.4L144.2,50.4z"/>
	<polygon points="159.2,49.7 160.6,44.4 161.6,44.4 159.5,51.2 158.8,51.2 157.3,46.3 155.8,51.2 155,51.2 152.9,44.4 153.8,44.4 
		155.4,49.7 157,44.4 157.5,44.4 	"/>
	<polygon points="164.7,48.1 164.7,50.4 167.6,50.4 167.6,51.2 163.9,51.2 163.9,44.5 167.4,44.5 167.4,45.2 164.7,45.2 164.7,47.4 
		167.3,47.4 167.3,48.1 	"/>
	<path d="M172.6,49.7c0.1-0.7-0.5-1.2-1.4-1.9c-0.8-0.6-1.1-1.1-1.1-1.8c0-0.9,0.7-1.5,1.8-1.5c0.5,0,0.9,0.1,1.4,0.4l-0.4,0.7
		c-0.4-0.2-0.7-0.3-1-0.3c-0.6,0-1,0.2-1,0.7c0,0.4,0.1,0.6,1,1.4c0.9,0.8,1.6,1.2,1.6,2.2c0,1.1-0.8,1.8-1.8,1.8
		c-0.7,0-1.1,0-1.8-0.5l0.4-0.7C171.2,50.8,172.5,50.6,172.6,49.7L172.6,49.7z"/>
	<polygon points="175.4,45.2 175.4,44.5 178.6,44.5 178.6,45.2 177.4,45.2 177.4,51.2 176.6,51.2 176.6,45.2 	"/>
	<polygon points="181.8,48.1 181.8,51.2 181,51.2 181,44.5 184.3,44.5 184.3,45.2 181.8,45.2 181.8,47.4 184.2,47.4 184.2,48.1 	"/>
	<path d="M190.1,49.8h-3.3l-0.6,1.4h-0.9l2.8-6.7h0.7l2.8,6.7h-0.9L190.1,49.8L190.1,49.8z M189.8,49l-1.4-3.4L187,49H189.8
		L189.8,49z"/>
	<polygon points="193.3,44.5 194.1,44.5 194.1,50.4 196.7,50.4 196.7,51.2 193.3,51.2 	"/>
	<polygon points="199.3,48.1 199.3,50.4 202.1,50.4 202.1,51.2 198.5,51.2 198.5,44.5 202,44.5 202,45.2 199.3,45.2 199.3,47.4 
		201.9,47.4 201.9,48.1 	"/>
	<polygon points="205.1,44.4 208.7,49.7 208.7,44.4 209.6,44.4 209.6,51.2 208.8,51.2 205.1,45.9 205.1,51.2 204.3,51.2 204.3,44.4 
			"/>
	<path d="M14.9,56.4c2,0,3.5,1.3,3.5,3.4c0,2-1.7,3.2-3.7,3.2h-1.3v-6.7L14.9,56.4L14.9,56.4z M14.9,62.1c1.2,0,2.5-0.8,2.5-2.3
		c0-1.9-1.4-2.6-2.5-2.6h-0.5V62L14.9,62.1L14.9,62.1z"/>
	<path d="M23.1,62.1c1,0,1.4-0.6,1.4-1.7v-4.1h1v4c0,1.8-1,2.7-2.4,2.7c-1.5,0-2.5-0.9-2.5-2.7v-4h1v4.1
		C21.7,61.5,22.2,62.1,23.1,62.1L23.1,62.1z M22.1,56.4h0.8v0.9h-0.8V56.4L22.1,56.4z M23.3,56.4h0.8v0.9h-0.8V56.4L23.3,56.4z"/>
	<path d="M30.3,61.5c0.1-0.6-0.5-1.1-1.3-1.7c-0.8-0.6-1.1-1.1-1.1-1.8c0-0.9,0.7-1.6,1.8-1.6c0.5,0,0.9,0.1,1.5,0.4l-0.5,0.8
		c-0.4-0.2-0.7-0.3-1-0.3c-0.5,0-0.8,0.2-0.8,0.6c0,0.4,0.1,0.5,0.9,1.2s1.5,1.2,1.5,2.2c0,1.1-0.8,1.8-1.9,1.8
		c-0.7,0-1.2,0-1.9-0.5l0.5-0.9C29,62.4,30.1,62.3,30.3,61.5L30.3,61.5z"/>
	<path d="M36,61.5c0.1-0.6-0.5-1.1-1.3-1.7c-0.8-0.6-1.1-1.1-1.1-1.8c0-0.9,0.7-1.6,1.8-1.6c0.5,0,0.9,0.1,1.5,0.4l-0.5,0.8
		c-0.4-0.2-0.7-0.3-1-0.3c-0.5,0-0.8,0.2-0.8,0.6c0,0.4,0.1,0.5,0.9,1.2c0.8,0.7,1.5,1.2,1.5,2.2c0,1.1-0.8,1.8-1.9,1.8
		c-0.7,0-1.2,0-1.9-0.5l0.5-0.9C34.7,62.4,35.9,62.3,36,61.5L36,61.5z"/>
	<polygon points="40.5,60.1 40.5,62.1 43.2,62.1 43.2,63 39.5,63 39.5,56.4 43.1,56.4 43.1,57.2 40.5,57.2 40.5,59.2 43,59.2 
		43,60.1 	"/>
	<polygon points="45.6,56.4 46.6,56.4 46.6,62.1 49.1,62.1 49.1,63 45.6,63 	"/>
	<path d="M52.7,56.4c2,0,3.5,1.3,3.5,3.4c0,2-1.7,3.2-3.7,3.2h-1.3v-6.7L52.7,56.4L52.7,56.4z M52.7,62.1c1.2,0,2.5-0.8,2.5-2.3
		c0-1.9-1.4-2.6-2.5-2.6h-0.5V62L52.7,62.1L52.7,62.1z"/>
	<path d="M64.9,59.7c0,1.9-1.5,3.4-3.5,3.4s-3.5-1.6-3.5-3.4c0-1.9,1.6-3.4,3.5-3.4S64.9,57.8,64.9,59.7L64.9,59.7z M58.9,59.7
		c0,1.3,1,2.5,2.5,2.5c1.4,0,2.5-1.1,2.5-2.5c0-1.3-1.1-2.5-2.5-2.5C60,57.3,58.9,58.4,58.9,59.7L58.9,59.7z"/>
	<path d="M66.7,63v-6.7h2c1.1,0,1.9,0.8,1.9,1.9c0,1.1-0.8,1.7-1.8,1.8l2.7,3h-1.4l-2.4-2.7V63H66.7L66.7,63z M68.4,59.2
		c0.7,0,1.2-0.3,1.2-1c0-0.8-0.6-1-1.2-1h-0.7v2H68.4L68.4,59.2z"/>
	<polygon points="74.4,60.1 74.4,63 73.4,63 73.4,56.4 76.8,56.4 76.8,57.2 74.4,57.2 74.4,59.2 76.7,59.2 76.7,60.1 	"/>
	<polygon points="15.4,26.8 15.4,31.8 19.5,26.8 22.1,26.8 16.9,32.7 23.2,39.9 20.5,39.9 15.7,34.2 15.4,34.5 15.4,39.9 13.4,39.9 
		13.4,26.8 	"/>
	<path d="M31.1,38.1c2,0,2.8-1.2,2.8-3.4v-8h2v7.9c0,3.6-2,5.4-4.8,5.4c-2.9,0-4.8-1.9-4.8-5.4v-7.9h2v8
		C28.3,36.9,29.3,38.1,31.1,38.1L31.1,38.1z"/>
	<path d="M61,36.8c0.2-1.2-0.9-2.1-2.6-3.4c-1.5-1.2-2.2-2.1-2.2-3.5c0-1.8,1.4-3.1,3.6-3.1c1,0,1.8,0.3,3,0.8l-1,1.6
		c-0.8-0.4-1.3-0.6-1.9-0.6c-0.9,0-1.6,0.4-1.6,1.1s0.2,1,1.8,2.4c1.7,1.4,3,2.3,3,4.4c0,2.1-1.7,3.6-3.7,3.6
		c-1.3,0-2.3-0.1-3.8-1.1l0.9-1.8C58.5,38.7,60.7,38.5,61,36.8L61,36.8z"/>
	<polygon points="66.9,28.5 66.9,26.8 73.4,26.8 73.4,28.5 71.2,28.5 71.2,39.9 69.2,39.9 69.2,28.5 	"/>
	<path d="M81.8,40.1l-5.6-13.3h2.2l3.6,8.8l3.6-8.8h2.2l-5.6,13.3C82.2,40.4,82,40.4,81.8,40.1L81.8,40.1z"/>
	<polygon points="93.1,34.1 93.1,38 98.5,38 98.5,39.9 91.1,39.9 91.1,26.8 98.2,26.8 98.2,28.5 93.1,28.5 93.1,32.4 98.1,32.4 
		98.1,34.1 	"/>
	<path d="M102.8,39.9V26.8h3.9c2.1,0,3.8,1.5,3.8,3.7s-1.6,3.4-3.6,3.6l5.3,5.9h-2.7l-4.7-5.4V40L102.8,39.9L102.8,39.9z
		 M106.1,32.4c1.4,0,2.3-0.6,2.3-2c0-1.6-1.2-1.9-2.3-1.9h-1.4v3.9H106.1L106.1,32.4z"/>
	<polygon points="117.4,34.1 117.4,38 122.7,38 122.7,39.9 115.4,39.9 115.4,26.8 122.4,26.8 122.4,28.5 117.4,28.5 117.4,32.4 
		122.3,32.4 122.3,34.1 	"/>
	<polygon points="129.5,26.8 129.5,39.9 127.5,39.9 127.5,26.8 	"/>
	<path d="M41.7,26.5l8,9.3v-9h2v13.6h-0.5l-8-9.4v9h-2V26.6C41.1,26.3,41.5,26.3,41.7,26.5L41.7,26.5z"/>
	<path d="M134.9,26.5l8,9.3v-9h2v13.6h-0.5l-8-9.4v9h-2V26.6C134.4,26.3,134.8,26.3,134.9,26.5L134.9,26.5z"/>
</g>
</svg>
