<?xml version="1.0" encoding="utf-8"?>
<!-- Generator: Adobe Illustrator 24.3.0, SVG Export Plug-In . SVG Version: 6.00 Build 0)  -->
<svg version="1.1" id="Ebene_1" xmlns="http://www.w3.org/2000/svg" xmlns:xlink="http://www.w3.org/1999/xlink" x="0px" y="0px"
	 viewBox="0 0 198.4 113.4" style="enable-background:new 0 0 198.4 113.4;" xml:space="preserve">
<rect x="98.3" y="0.4" transform="matrix(0.1205 -0.9927 0.9927 0.1205 1.9766 174.1019)" width="1.9" height="171.1"/>
<g>
	<path d="M31.2,57.6h2.1V45.2c0-1,0-1.7-0.1-2.3l0,0c0.3,0.8,0.6,1.4,1.1,2.2l7.3,12.5h2.8V40.5h-2.1v12.4c0,1,0,1.7,0.1,2.3l0,0
		c-0.3-0.7-0.6-1.4-1.1-2.2L34,40.5h-2.8C31.2,40.5,31.2,57.6,31.2,57.6z M58,57.6h2.6l-4.4-7.4c2.9-0.7,3.9-2.8,3.9-4.7
		c0-2.5-1.2-5-5.7-5H48v17.2h2.3v-7.1h3.5L58,57.6z M50.3,42.4h3.8c2.6,0,3.5,1.3,3.5,3.1c0,1.7-0.9,3.1-3.5,3.1h-3.8V42.4z
		 M65.8,57.6h2.8l3.3-13.4c0.1-0.3,0.1-0.5,0.1-0.8h0.1c0,0.3,0.1,0.5,0.1,0.8l3.3,13.4h2.9l4.1-17.2h-2.3l-3,13.8
		c-0.1,0.5-0.1,0.7-0.1,0.9H77c0-0.2-0.1-0.5-0.2-0.9l-3.5-13.8H71l-3.6,13.9c-0.1,0.5-0.2,0.7-0.2,0.9h-0.1c0-0.3,0-0.5-0.1-0.9
		l-3-13.8h-2.3L65.8,57.6z"/>
	<path d="M42.5,35.8h2.9l-7.3-11l0.2-0.2l6.6-7.2h-3.1l-8,9.1v-9.1h-2.4v18.3h2.4v-6.2l2.7-3L42.5,35.8z M50.2,36.1
		c1.8,0,3.4-1.2,4-2.7v2.4h2.1V23h-2.2v6.9c0,2.6-1.4,4.4-3.5,4.4c-1.7,0-2.6-1.2-2.6-3.4v-8h-2.2v8.2C45.8,34.2,47,36.1,50.2,36.1
		 M58.8,35.8H61v-6.7c0-2.9,1.3-4.6,3.5-4.6c1.9,0,2.8,1.2,2.8,3.4v7.9h2.2v-8c0-3.5-1.5-5.2-4.3-5.2c-2,0-3.5,1-4.3,2.9v-2.6h-2.1
		C58.8,22.9,58.8,35.8,58.8,35.8z M76.7,36.1c3.1,0,4.9-1.5,4.9-3.9c0-2-1-3.4-3.6-3.7l-2.1-0.2c-1.6-0.2-2.3-0.9-2.3-2
		c0-1.2,1-1.9,2.7-1.9c1.8,0,2.8,1.1,3.1,2.6l2.2-0.5c-0.3-2.4-2.3-3.9-5.2-3.9c-3,0-4.9,1.5-4.9,3.8c0,2,1.2,3.4,3.8,3.7l2.1,0.2
		c1.4,0.2,2.1,0.7,2.1,2c0,1.2-1,1.9-2.7,1.9c-1.9,0-3.1-1-3.5-2.9l-2.2,0.6C71.6,34.6,73.6,36.1,76.7,36.1 M82.4,24.8h2.4V32
		c0,2.4,0.7,4.1,3.5,4.1c0.8,0,1.3-0.1,1.9-0.2v-2c-0.4,0.1-0.8,0.2-1.3,0.2c-1.3,0-1.9-0.6-1.9-2.1v-7.1h3.2v-1.8H87v-4.3l-2.2,0.9
		v3.4h-2.4V24.8z M96.5,36.1c3.1,0,4.9-1.5,4.9-3.9c0-2-1-3.4-3.6-3.7l-2.1-0.2c-1.6-0.2-2.3-0.9-2.3-2c0-1.2,1-1.9,2.7-1.9
		c1.8,0,2.8,1.1,3.1,2.6l2.2-0.5c-0.3-2.4-2.3-3.9-5.2-3.9c-3,0-4.9,1.5-4.9,3.8c0,2,1.2,3.4,3.8,3.7l2.1,0.2c1.4,0.2,2.1,0.7,2.1,2
		c0,1.2-1,1.9-2.7,1.9c-1.9,0-3.1-1-3.5-2.9l-2.2,0.4C91.4,34.6,93.4,36.1,96.5,36.1 M102.1,24.8h2.4V32c0,2.4,0.7,4.1,3.5,4.1
		c0.8,0,1.3-0.1,1.9-0.2v-2c-0.4,0.1-0.8,0.2-1.3,0.2c-1.3,0-1.9-0.6-1.9-2.1v-7.1h3.2v-1.8h-3.2v-4.3l-2.2,0.9v3.4h-2.4V24.8z
		 M111.5,20.6h2.5v-2.8h-2.5V20.6z M111.6,35.8h2.2V23h-2.2V35.8z M123.1,23h-3.2v-1.7c0-1.6,0.5-2.3,1.9-2.3c0.4,0,0.9,0.1,1.4,0.1
		v-1.9c-0.5-0.1-1-0.2-1.7-0.2c-2.3,0-3.8,1.6-3.8,3.9v2h-2.4v1.8h2.4v11.1h2.2v-11h3.2V23L123.1,23z M124.3,24.8h2.4V32
		c0,2.4,0.7,4.1,3.5,4.1c0.8,0,1.3-0.1,1.9-0.2v-2c-0.4,0.1-0.8,0.2-1.3,0.2c-1.3,0-1.9-0.6-1.9-2.1v-7.1h3.2v-1.8h-3.2v-4.3
		l-2.2,0.9v3.4h-2.4V24.8z M138,36.1c1.8,0,3.4-1.2,4-2.7v2.4h2.1V23h-2.2v6.9c0,2.6-1.4,4.4-3.5,4.4c-1.7,0-2.6-1.2-2.6-3.4v-8
		h-2.2v8.2C133.6,34.2,134.8,36.1,138,36.1 M146.6,35.8h2.2v-6.7c0-2.9,1.3-4.6,3.5-4.6c1.9,0,2.8,1.2,2.8,3.4v7.9h2.2v-8
		c0-3.5-1.5-5.2-4.3-5.2c-2,0-3.5,1-4.3,2.9v-2.6h-2.1L146.6,35.8L146.6,35.8z M170.1,22.7c0.4,0,0.7,0.1,0.9,0.1v-1.9
		c-0.3-0.1-0.6-0.1-0.9-0.1c-1.7,0-2.7,1-3.1,2.3c-0.7-0.3-1.5-0.5-2.5-0.5c-3,0-4.8,1.9-4.8,4.4c0,1.3,0.4,2.3,1.3,3.1
		c-1.1,0.4-1.8,1.3-1.8,2.6c0,0.9,0.4,1.8,1.5,2.2c-1.4,0.4-2.1,1.5-2.1,2.7c0,1.8,1.3,3.5,5.8,3.5s6.4-1.7,6.4-4.1
		c0-2.3-1.5-3.6-4.4-3.6h-3.1c-1.6,0-2.1-0.6-2.1-1.3c0-0.6,0.4-1,0.9-1.3c0.7,0.3,1.5,0.5,2.5,0.5c3,0,4.8-1.9,4.8-4.4
		c0-1.2-0.4-2.3-1.2-3C168.5,23.1,169.1,22.7,170.1,22.7 M164.6,29.7c-1.6,0-2.7-1.2-2.7-2.7c0-1.6,1.1-2.7,2.7-2.7
		c1.7,0,2.7,1.1,2.7,2.7S166.2,29.7,164.6,29.7 M166,35.4c1.8,0,2.7,0.6,2.7,1.9c0,1.2-0.8,2.1-3.9,2.1c-2.3,0-3.9-0.5-3.9-2.1
		c0-0.8,0.4-1.5,1.4-1.9c0.3,0,0.7,0.1,1.1,0.1L166,35.4L166,35.4z"/>
</g>
</svg>
