<?xml version="1.0" encoding="utf-8"?>
<!-- Generator: Adobe Illustrator 26.2.1, SVG Export Plug-In . SVG Version: 6.00 Build 0)  -->
<svg version="1.1" id="Layer_1" xmlns="http://www.w3.org/2000/svg" xmlns:xlink="http://www.w3.org/1999/xlink" x="0px" y="0px"
	 viewBox="0 0 84.8 116.7" style="enable-background:new 0 0 84.8 116.7;" xml:space="preserve">
<style type="text/css">
	.st0{fill:#AA7580;}
</style>
<rect x="-0.2" y="0" class="st0" width="84.9" height="116.6"/>
<path d="M0.1,58.3C0.1,41.9,0.2,25.4,0,9c-0.1-5.5,3.7-9.1,9.1-9C23,0.2,36.9,0.1,50.8,0c1.6,0,2.7,0.5,3.8,1.6
	c8.9,9,17.9,18,26.9,26.9c1.1,1.1,1.5,2.2,1.5,3.6c0,25.3,0,50.6,0,76c0,5.4-3.1,8.5-8.6,8.5c-21.9,0-43.8,0-65.6,0
	c-5.7,0-8.7-3-8.7-8.7C0.1,91.4,0.1,74.8,0.1,58.3z M77.8,33.7c-0.9,0-1.6,0-2.3,0c-5.9,0-11.7,0-17.6,0c-5.4,0-8.6-3.1-8.6-8.5
	c0-6,0-11.9,0-17.9c0-0.6,0-1.2,0-2c-0.8,0-1.4,0-2,0c-12.7,0-25.5,0-38.2,0C5.9,5.3,5.2,5.9,5.2,9c0,32.9,0,65.8,0,98.7
	c0,3.1,0.7,3.8,3.9,3.8c21.6,0,43.2,0,64.8,0c3.3,0,3.9-0.6,3.9-3.9c0-23.9,0-47.8,0-71.7C77.8,35.2,77.8,34.6,77.8,33.7z M54.5,9.3
	c0,5.4,0,10.6,0,15.8c0,2.7,0.8,3.5,3.5,3.5c4.8,0,9.6,0,14.5,0c0.4,0,0.8-0.1,1.2-0.1C67.3,22,61,15.8,54.5,9.3z"/>
<path d="M41.7,70.1c6.5,0,13.1,0,19.6,0c2.3,0,3.5,0.9,3.5,2.6c0,1.6-1.3,2.6-3.4,2.6c-13.3,0-26.5,0-39.8,0c-2.4,0-3.7-1.3-3.3-3.1
	c0.4-1.6,1.5-2.1,3.1-2.1C28.1,70.1,34.9,70.1,41.7,70.1z"/>
<path d="M41.5,62.2c-6.7,0-13.3,0-20,0c-2.2,0-3.4-1-3.3-2.6c0-1.6,1.3-2.6,3.4-2.6c13.3,0,26.5,0,39.8,0c2.3,0,3.6,1.2,3.4,2.9
	c-0.2,1.5-1.2,2.3-3.1,2.3C54.9,62.2,48.2,62.2,41.5,62.2z"/>
<path d="M41.4,88.2c-6.5,0-13.1,0-19.6,0c-0.8,0-1.8,0-2.3-0.5c-0.6-0.6-1.2-1.7-1.1-2.4c0.1-0.8,1-1.5,1.7-2.1
	c0.4-0.3,1.2-0.2,1.8-0.2c13.1,0,26.2,0,39.3,0c0.2,0,0.5,0,0.7,0c1.8,0.1,3,1.1,3,2.7c0,1.5-1.2,2.5-2.9,2.5c-4.1,0-8.2,0-12.2,0
	C46.9,88.2,44.1,88.2,41.4,88.2z"/>
</svg>
