<?xml version="1.0" encoding="utf-8"?>
<!-- Generator: Adobe Illustrator 24.3.0, SVG Export Plug-In . SVG Version: 6.00 Build 0)  -->
<svg version="1.1" id="Layer_1" xmlns="http://www.w3.org/2000/svg" xmlns:xlink="http://www.w3.org/1999/xlink" x="0px" y="0px"
	 viewBox="0 0 1218.9 425.2" style="enable-background:new 0 0 1218.9 425.2;" xml:space="preserve">
<style type="text/css">
	.st0{fill:#FFFFFF;}
</style>
<g>
	<path class="st0" d="M378.4,45.5c265.1,0,530.2,0,795.4,0c0,111,0,222,0,333.1c-265.1,0-530.2,0-795.4,0c0.1-1.3,0.2-2.5,0.2-3.8
		c0-108.3,0-216.5,0-324.8C378.6,48.5,378.5,47,378.4,45.5z M479.9,267.7c0.6,0.1,1,0.1,1.4,0.1c7.5,0,15,0,22.5,0
		c7.2-0.1,14.3-1.1,21.1-3.9c9.5-3.9,16.1-10.5,18.9-20.6c1.3-4.6,1.7-9.3,1.2-14c-1.2-11.2-6.7-19.3-17.4-23.5
		c-4.3-1.7-8.8-2.6-13.3-2.7c-10.9-0.2-21.9-0.1-32.8-0.1c-0.2,0-0.4,0.1-0.8,0.3c0.1,0.6,0.1,1.2,0.2,1.8c1.4,0.2,2.7,0.4,3.9,0.6
		c2.4,0.4,3.8,1.9,4.1,4.4c0.2,1.3,0.4,2.5,0.4,3.8c0,14,0.1,28,0,42c0,1.6-0.2,3.2-0.4,4.8c-0.3,2.5-1.7,4.1-4.3,4.5
		c-1.6,0.2-3.1,0.5-4.6,0.7c-0.1,0.4-0.1,0.6-0.1,0.8C479.8,266.8,479.8,267.1,479.9,267.7z M776,224.1c-4.5-1.4-8.7-1.1-13-0.1
		c-11,2.6-20.4,12.2-19.4,25.8c0.7,8.7,6.6,16.1,15,18.5c3,0.9,5.8,0.8,8.6-0.8c2.3-1.3,4.6-2.5,7-3.7c0.5-0.3,1.1-0.5,2-0.9
		c0,2.2,0,4.1,0,5.9c5.2-1.3,10-2.5,15.1-3.8c0-0.6-0.1-1.3-0.1-2.1c-0.8,0-1.5,0-2.1,0c-4.9-0.1-5.1-0.3-5.1-5.2
		c0-19.3,0-38.7,0-58c0-0.9,0-1.7,0-2.9c-5.2,1.2-10.1,2.3-15.2,3.4c0,0.6,0,1.2,0,1.9c1,0.1,1.9,0.1,2.7,0.2c3.7,0.4,4.6,1.3,4.7,5
		c0,0.2,0,0.3,0,0.5c0,4.6,0,9.1-0.1,13.7C776.1,222.3,776,223.1,776,224.1z M661.5,113.6c-4.2-1.2-7.9-1.1-11.6-0.4
		c-11.9,2.1-22.1,12.1-21,26.2c0.7,8.8,6.9,16.3,15.3,18.5c2.8,0.7,5.5,0.6,8.1-0.8c2.4-1.3,4.8-2.6,7.2-3.8
		c0.5-0.3,1.1-0.4,1.9-0.8c0,2.1,0,3.9,0,5.8c5.1-1.3,10-2.5,15.1-3.8c0-0.6-0.1-1.2-0.1-2c-0.9,0-1.6-0.1-2.3-0.1s-1.4,0-2.2,0
		c-1.8-0.2-2.5-0.8-2.7-2.7c-0.1-0.9-0.1-1.8-0.1-2.6c0-19.3,0-38.5,0-57.8c0-0.9,0-1.9,0-3c-2.8,0.7-5.3,1.3-7.7,1.9
		c-2.5,0.6-5,1.1-7.5,1.6c0,0.7,0,1.2,0,1.8c1.2,0.2,2.3,0.3,3.4,0.5c3.1,0.4,3.9,1.2,4.1,4.2c0,0.6,0,1.1,0,1.7c0,4.3,0,8.6,0,12.9
		C661.5,111.6,661.5,112.4,661.5,113.6z M1119.7,91.5c1.3,0.2,2.5,0.3,3.6,0.5c3,0.4,3.8,1.2,3.9,4.1c0.1,5.6,0,11.2,0,16.8
		c0,0.1-0.2,0.3-0.3,0.5c-4.5-1.2-9-0.9-13.4,0.2c-11.5,3-19.1,12.9-18.8,24.4c0.3,9,5.9,16.7,14.2,19.4c3.4,1.2,6.7,1.1,9.9-0.7
		c2.1-1.2,4.3-2.4,6.5-3.5c0.5-0.3,1.1-0.5,2-0.8c0,2.2,0,4,0,5.9c5.2-1.3,10.1-2.6,15.1-3.8c0-0.6-0.1-1.2-0.1-2.1
		c-1.5,0-2.9,0.1-4.2,0c-2.1-0.1-2.9-0.8-3.1-2.9c-0.1-0.9-0.1-1.8-0.1-2.6c0-19.2,0-38.4,0-57.6c0-0.9,0-1.9,0-3
		c-5,1.1-9.7,2.2-14.5,3.2C1119.4,89.8,1119.6,90.6,1119.7,91.5z M776.9,157.2c-0.1-1-0.1-1.6-0.2-2.2c-0.5-0.1-0.7-0.1-0.9-0.2
		c-4.8-0.7-5.4-1.4-5.5-6.4c0-8,0-16,0-24c0-1.4,0.5-2.4,1.6-3.3c2.8-2.2,5.9-3.2,9.4-3.1c4.8,0.1,7.8,2.6,8.9,7.2
		c0.3,1.4,0.5,2.8,0.5,4.3c0.1,6.6,0,13.1,0,19.7c0,0.5,0,1-0.1,1.4c-0.3,2.5-1,3.3-3.6,3.8c-1,0.2-2,0.4-3.1,0.6
		c0.1,0.7,0.1,1.3,0.2,2c7,0,13.8,0,20.8,0c0-0.8,0-1.5,0-2.1c-1.2-0.2-2.2-0.3-3.2-0.6c-2.2-0.5-3-1.3-3.2-3.6
		c-0.1-0.9-0.1-1.8-0.1-2.6c0-7.4,0.1-14.7,0-22.1c-0.2-9.7-7.5-15.2-16.9-13c-3.4,0.8-6.4,2.5-9.1,4.7c-0.5,0.4-1.1,0.8-2,1.5
		c0-1.4,0-2.2,0-3.1c0-9,0-18.1,0-27.1c0-0.9-0.1-1.8-0.2-2.8c-5.1,1.2-9.8,2.3-14.6,3.5c0.1,0.7,0.1,1.2,0.2,1.7
		c1.4,0.2,2.7,0.3,3.9,0.6c2,0.4,2.6,1.1,2.8,3c0.1,1.6,0,3.2,0,4.8c0,15.6,0,31.2,0,46.8c0,1.4,0,2.9-0.1,4.3
		c-0.1,1.8-1.1,2.9-2.9,3.3c-1.2,0.3-2.3,0.4-3.6,0.7c0,0.7,0,1.4,0,2.2c0.8,0,1.4,0,2.1,0C764.2,157.2,770.4,157.2,776.9,157.2z
		 M926.9,178.1c-1.7-0.2-3.2-0.4-4.6-0.6c-3.4-0.5-4.4-1.6-4.4-5.1c0-3.4,0-6.9,0-10.3c0-1.7,0-3.5,0-5.4c0.7,0.2,1.1,0.3,1.6,0.5
		c2.7,1.2,5.4,1.4,8.2,0.5c2.1-0.7,4.3-1.4,6.3-2.3c10.7-5,16.6-14.6,15.8-26.2c-0.4-5.6-2.8-10.4-7.5-13.6
		c-4.5-3.1-9.5-4.2-14.7-1.5c-2.4,1.2-4.7,2.3-7.1,3.5c-0.7,0.3-1.4,0.6-2.5,1.1c0-2.5,0-4.6,0-6.9c-4.9,1.4-9.4,2.6-13.9,3.9
		c-1.1,0.3-1.1,1-0.6,2c0.9,0.1,1.9,0.2,2.8,0.3c3.1,0.4,4,1.3,4.1,4.5c0,0.3,0,0.6,0,1c0,16.1,0,32.1,0,48.2c0,0.6,0,1.3-0.1,1.9
		c-0.3,2.5-1.1,3.4-3.5,3.9c-0.9,0.2-1.9,0.3-2.8,0.4c-0.2,0-0.4,0.2-0.7,0.3c0,0.7,0,1.3,0,2c7.9,0,15.7,0,23.7,0
		C926.9,179.4,926.9,178.8,926.9,178.1z M591.5,112.7c-4.8,1.2-9.2,2.3-13.6,3.5c-0.4,0.1-1,0.6-1.1,1c-0.1,1,0.7,1,1.5,1.1
		c4.5,0.6,5.4,1,5.4,6.3c0,7.8,0,15.7,0,23.5c0,1-0.1,1.9-0.2,2.9c-0.1,2-1.3,3-3.2,3.3c-1.3,0.3-2.6,0.5-4,0.7
		c0,0.5-0.1,0.9-0.1,1.3c0,0.2,0.1,0.4,0.3,0.7c7,0,14,0,21.1,0c0.1-0.4,0.2-0.7,0.1-1.1c0-0.4-0.2-0.7-0.3-1
		c-0.8-0.2-1.6-0.3-2.3-0.4c-2.9-0.6-3.7-1.4-3.8-4.3c-0.1-8.7,0-17.4,0-26.1c0-0.9,0.3-1.5,1-2c2.8-2.1,5.8-3.8,9.4-3.8
		c5.1-0.1,8.3,1.5,9.5,7.1c0.2,1.2,0.3,2.4,0.3,3.6c0,6.6,0,13.3,0,19.9c0,0.7,0,1.4-0.1,2.2c-0.2,1.9-1.2,3.1-3.1,3.4
		c-1,0.2-2.1,0.3-3.1,0.5c-0.2,0-0.4,0.2-0.7,0.3c0,0.6,0,1.2,0,1.9c7,0,13.9,0,21,0c0-0.8-0.1-1.4-0.1-2c-0.9-0.2-1.7-0.3-2.5-0.5
		c-2.7-0.6-3.4-1.4-3.6-4.2c-0.1-0.9-0.1-1.8-0.1-2.6c0-5.6,0-11.2,0-16.8c0-2.2,0.1-4.3,0-6.5c-0.3-6.9-4.8-11.4-11.7-11.8
		c-2.7-0.2-5.3,0.5-7.6,1.8c-2.4,1.4-4.6,2.8-6.9,4.3c-0.4,0.3-0.9,0.5-1.6,0.8C591.5,117.1,591.5,115,591.5,112.7z M877.8,116.7
		c0.3,0.1,0.4,0.2,0.5,0.3c1.3,0.2,2.5,0.4,3.8,0.5c2.4,0.3,3.2,1.2,3.3,3.6c0.1,1.8,0,3.7,0,5.5c0,6.4,0,12.8,0,19.2
		c0,0.9,0.2,1.7-0.7,2.4c-3.2,2.5-6.7,4.5-10.9,4.5c-3.9,0-6.8-2.1-7.8-5.8c-0.5-2-0.8-4.1-0.8-6.1c-0.1-8.3,0-16.6,0-24.9
		c0-0.8-0.1-1.7-0.1-2.6c-4.3,0.5-8.4,1-12.4,1.5c-1.4,0.2-1.4,0.3-1.2,2.2c0.7,0.2,1.5,0.4,2.3,0.5c2.9,0.5,3.5,1.2,3.7,4
		c0,0.7,0,1.4,0,2.2c0,6.9,0,13.8,0,20.6c0,1.7,0.2,3.4,0.5,5c1,5.2,4.7,8.6,10,9.1c3.2,0.3,6.2-0.2,9-1.9c2.3-1.4,4.4-2.9,6.6-4.3
		c0.5-0.3,1-0.6,1.6-0.9c0.5,2.5-0.2,4.8,0.6,7.1c5-1.2,9.8-2.4,14.6-3.6c0-0.6,0-1.2,0-2.1c-1.3,0-2.5,0-3.7,0
		c-2.8-0.1-3.2-0.5-3.4-3.2c-0.1-1.3-0.1-2.6-0.1-3.8c0-9.8,0-19.7,0-29.5c0-0.9-0.1-1.8-0.1-2.8c-5.3,0.6-10.3,1.2-15.3,1.8
		C877.8,115.8,877.8,116.3,877.8,116.7z M550.8,227.5c1,0.2,1.7,0.3,2.4,0.4c3,0.5,3.7,1.3,3.8,4.2c0,0.7,0,1.4,0,2.2
		c0,7.3,0,14.6,0.1,21.8c0,1.7,0.4,3.5,0.8,5.2c0.9,3.5,3.3,5.8,6.7,6.9c3.9,1.3,7.8,1,11.4-0.9c2.3-1.3,4.5-2.8,6.7-4.2
		c0.6-0.4,1.3-0.9,2.2-1.5c0.1,2.6,0.2,4.8,0.2,7.1c0.6,0,1,0.1,1.3,0c4.2-1,8.4-2,12.6-3c1.3-0.3,1.4-1.1,1-2.2
		c-1.5-0.1-3-0.3-4.5-0.4c-1.9-0.2-2.3-0.6-2.5-2.5c-0.1-1.1-0.2-2.2-0.2-3.3c0-10.2,0-20.5,0-30.7c0-0.8-0.1-1.7-0.1-2.6
		c-5.3,0.6-10.3,1.2-15.2,1.8c-0.2,1.9-0.2,1.9,1.2,2.1c0.9,0.1,1.9,0.2,2.9,0.3c2.8,0.4,3.5,1.2,3.5,3.9c0,8.3,0,16.6,0,25
		c0,0.6-0.3,1.5-0.7,1.9c-2.8,2.4-5.9,4.1-9.6,4.5c-4.9,0.5-8.4-2.2-9.3-7c-0.3-1.8-0.5-3.7-0.5-5.5c0-8.2,0-16.3,0-24.5
		c0-0.8-0.1-1.7-0.1-2.6c-4.8,0.6-9.3,1.2-13.9,1.8C550.8,226.3,550.8,226.8,550.8,227.5z M526.3,141.4c-1.3,2.7-2.4,5.2-3.6,7.6
		c-1.2,2.4-3.2,3.8-5.8,4.3c-4.9,1-9.9,1-14.8,0.1c-2.7-0.5-3.8-1.7-4.2-4.5c-0.2-1.8-0.4-3.7-0.4-5.5c0-12.7,0-25.4,0-38.2
		c0-1.8,0.2-3.7,0.4-5.5c0.4-2.9,1.7-4.2,4.6-4.8c1.4-0.3,2.8-0.4,4.4-0.7c0-0.5,0.1-1,0.1-1.5c0-0.2-0.2-0.4-0.3-0.6
		c-8.8,0-17.6,0-26.6,0c0.1,0.8,0.1,1.5,0.2,2.1c1.6,0.2,2.9,0.4,4.3,0.6c2.7,0.5,3.8,1.7,4.3,4.5c0.2,1.2,0.4,2.4,0.4,3.6
		c0,14,0.1,28,0.1,42c0,1.6-0.2,3.2-0.4,4.8c-0.4,3-1.6,4.1-4.6,4.7c-1.3,0.2-2.6,0.4-4,0.6c-0.1,0.4-0.1,0.7-0.1,1s0.1,0.6,0.2,1
		c15,0,29.9,0,45,0c1.1-5.2,2.3-10.2,3.4-15.3c-0.5-0.2-0.8-0.3-1.1-0.3C527.2,141.4,526.8,141.4,526.3,141.4z M838.4,244.5
		c-0.2-8-3.8-15.3-12.3-19.2s-16.6-2.5-23.7,3.5c-5.4,4.6-7.6,10.7-7.8,17.6c-0.3,9.4,5.5,18.2,14.2,21.3c9.3,3.3,19.3,0.3,25.1-7.4
		C837,255.9,838.3,250.9,838.4,244.5z M833.8,152c0.4,0.9,0.6,1.5,0.9,2.2c0.5,0.9,1,1.8,1.7,2.6c1.5,1.6,2.7,1.8,4.7,0.8
		c2.2-1.1,4.5-2.2,6.7-3.3c0.5-0.3,1-0.6,1.6-1c-0.4-0.7-0.7-1.2-1-1.8c-1,0.3-1.9,0.7-2.9,0.9c-2,0.5-3-0.1-3.7-2.1
		c-0.3-1-0.4-2.2-0.4-3.3c0-7.3,0-14.6,0-21.8c0-1.4-0.1-2.7-0.3-4.1c-0.9-5.7-6.8-9.6-12.5-8.3c-5.5,1.3-10.5,3.8-15,7.2
		c-0.6,0.5-1.2,1-1.7,1.7c-0.7,0.9-1.3,1.9-0.6,3.1c0.7,1.3,2.8,2.5,4.2,2.3c1.3-0.2,1.8-1.1,2.2-2.3c0.5-1.5,1.1-3,1.9-4.4
		c1.7-3.1,4.5-3.9,7.8-3.5c3.2,0.5,5.3,2.3,6,5.4c0.4,1.8,0.4,3.6,0.6,5.5c0.2,1.5-0.4,2.4-1.8,3c-3.5,1.4-6.9,2.9-10.4,4.4
		c-2.1,0.9-4.2,1.6-6.2,2.7c-4.2,2.3-5.9,5.9-5.3,10.6c0.9,6.9,9.7,12.8,16.3,8C828.9,154.9,831.3,153.6,833.8,152z M1090.8,151.5
		c-1.1,0.4-1.9,0.7-2.8,0.9c-2.2,0.5-3.4-0.1-3.9-2.3c-0.3-1.2-0.4-2.5-0.4-3.8c0-7,0-13.9,0-20.9c0-1.2,0-2.4-0.1-3.6
		c-0.7-6.1-6.7-10.3-12.7-8.9c-5.4,1.2-10.2,3.6-14.6,7c-0.7,0.5-1.4,1.1-1.9,1.8c-0.8,0.9-1.4,2-0.7,3.3c0.9,1.5,2.3,2.2,4,2.2
		c1.5,0,1.9-1.1,2.4-2.3c0.6-1.6,1.2-3.2,2-4.6c1.7-2.8,4.3-3.6,7.4-3.2c3,0.4,5.1,1.9,6,4.8c0.5,1.9,0.5,3.9,0.8,5.9
		c0.2,1.6-0.4,2.6-1.9,3.2c-3,1.3-6,2.6-9,3.9c-2.1,0.9-4.3,1.6-6.4,2.6c-2.9,1.4-5.2,3.4-6.1,6.7c-1.7,6.4,2.8,13,9.5,14.1
		c1.6,0.3,3.2,0.2,4.6-0.7c2.4-1.4,4.8-2.9,7.2-4.3c0.6-0.4,1.2-0.7,1.8-1.1c0.5,1,0.9,1.9,1.3,2.8c0.7,1.3,1.5,2.5,3,3
		c0.6,0.2,1.5,0.4,2,0.1c3.1-1.4,6.2-2.9,9.4-4.5C1091.4,152.8,1091.1,152.2,1090.8,151.5z M571.9,151.5c-1.1,0.4-1.9,0.7-2.8,0.9
		c-2.2,0.5-3.4-0.1-3.9-2.3c-0.3-1.3-0.4-2.7-0.4-4c0-7,0-13.9,0-20.9c0-1.1,0-2.2-0.1-3.4c-0.7-6.1-6.6-10.3-12.7-8.9
		c-5.3,1.2-10.1,3.6-14.4,6.8c-0.8,0.6-1.5,1.2-2.1,1.9c-0.9,0.9-1.4,2-0.7,3.3c0.9,1.5,2.3,2.3,4,2.2c1.5,0,1.9-1.1,2.4-2.3
		c0.6-1.6,1.2-3.1,2-4.6c1.7-2.8,4.4-3.6,7.4-3.2s5.1,1.9,5.9,4.8c0.5,1.9,0.5,3.9,0.8,5.9c0.2,1.6-0.4,2.6-1.9,3.2
		c-3.4,1.4-6.8,2.9-10.1,4.3c-2.1,0.9-4.3,1.7-6.4,2.8c-2.6,1.3-4.4,3.4-5.1,6.4c-1.5,6.5,3.1,12.9,9.9,13.9c1.6,0.2,3,0.1,4.4-0.7
		c2.4-1.4,4.8-2.9,7.2-4.3c0.6-0.4,1.2-0.7,1.8-1c0.4,1,0.7,1.8,1.2,2.5c0.8,1.1,1.6,2.2,2.7,3c0.5,0.4,1.6,0.7,2.2,0.4
		c3.2-1.4,6.3-3,9.6-4.6C572.5,152.8,572.2,152.2,571.9,151.5z M881.4,267.7c7.7,0,15.2,0,23,0c0-0.8-0.1-1.4-0.1-2.1
		c-1-0.1-1.8-0.1-2.6-0.3c-0.9-0.1-1.7-0.2-2.6-0.4c-2.4-0.6-3.2-1.4-3.6-3.9c-0.1-0.5-0.1-1-0.1-1.4c0-9.7,0-19.3,0-29
		c0-0.7,0.1-1.4,0.1-2.3c0.9,0,1.7-0.1,2.5-0.1c2.4,0,4.8,0,7.2,0c2.5,0,3.1-0.9,2.4-3.7c-3.9,0-8,0-12.1,0
		c-0.3-4.6-0.2-8.9,0.5-13.2c0.3-1.6,0.6-3.1,1.2-4.6c1.6-4.4,5.1-5.9,9.3-3.9c1.5,0.7,2.8,1.8,4.2,2.8c1.7,1.3,2.5,1.3,3.9-0.3
		c0.6-0.6,1.1-1.4,1.4-2.2c0.2-0.6,0.2-1.5-0.1-2c-1.3-2.4-6-4.5-8.7-4.1c-9.2,1.4-17.7,9.4-19.1,20.2c-0.3,2.4-0.4,4.7-0.6,7.2
		c-1.5,0.1-3-0.2-4.3,0.3c-1.3,0.4-2.3,1.6-2.9,3.1c2.4,0.9,4.9,0,7.2,0.6c0,0.6,0.1,1.1,0.1,1.7c0,9.9,0,19.8,0,29.7
		c0,0.5,0,1-0.1,1.4c-0.2,2.3-0.8,3.1-3.1,3.7c-1.1,0.3-2.1,0.5-3.3,0.7C881.4,266.4,881.4,267,881.4,267.7z M687.9,132
		c2.9-0.2,5.6-0.3,8.3-0.5c5.5-0.4,11-0.7,16.5-1.1c3-0.2,3.4-0.8,3.3-3.8c-0.1-6-4.6-11.8-10.5-13.4c-5.5-1.5-10.5-0.1-15,3.1
		c-9.2,6.6-12.7,20.4-8.1,30.8c4.4,9.8,16.9,14.1,25.1,9.1c3.3-2,5.9-4.5,8.2-7.6c-0.6-0.5-1-0.8-1.4-1.2c-1.4,1-2.7,2-4,2.8
		c-2.8,1.7-5.8,2.1-9,1.5C692.6,150.2,687.2,142.2,687.9,132z M685.4,242.5c0.7,0,1.5-0.1,2.3-0.1c7.6-0.5,15.2-1,22.7-1.5
		c2.5-0.2,3-0.8,3-3.3c0.1-6.4-5-12.7-11.4-14c-5.6-1.1-10.7,0.4-15,4c-7.7,6.5-10.3,15-8.9,24.8c0.6,4.6,2.7,8.5,6.2,11.6
		c4.5,4.1,10,5.8,16,4.6c5.5-1.1,9.5-4.7,12.9-9.6c-0.4-0.4-0.8-0.7-1.3-1.1c-1,0.8-1.8,1.4-2.7,2c-4,3-8.3,3.4-13,1.9
		C689.2,259.4,684.5,251.4,685.4,242.5z M732.6,196.9c-4.9,1.1-9.7,2.3-14.6,3.4c-0.1,0.3-0.2,0.6-0.2,0.9s0.1,0.6,0.2,1
		c0.6,0.1,1.2,0.1,1.7,0.1c4.5,0.3,5.2,1.1,5.2,5.6c0,17.1,0,34.2,0,51.3c0,0.7,0,1.4-0.1,2.2c-0.2,1.9-1.2,3.1-3.1,3.4
		c-1.2,0.2-2.5,0.4-3.9,0.7c0,0.7,0,1.3,0,2c7.4,0,14.6,0,22.1,0c-0.1-0.8-0.1-1.5-0.2-2.1c-0.5-0.1-0.8-0.1-1.1-0.1
		c-5.2-0.5-6-1.4-6-6.6c0-19.9,0-39.8,0-59.7C732.7,198.4,732.6,197.8,732.6,196.9z M986.4,144c0.4,3.3,0.7,6.3,1.1,9.3
		c0.1,1.1,0.6,1.8,1.5,2.3c6.6,3.6,13.2,4,19.9,0.3c8.1-4.5,9-15.9,1.2-21.1c-2.2-1.4-4.6-2.6-6.9-3.7c-2.3-1.1-4.6-2.2-6.4-4.1
		c-2.3-2.4-2.6-5.6-1-8.4c1.6-2.5,4.7-3.6,7.8-2.7c2.3,0.7,3.9,2.1,5.2,4c0.9,1.4,1.7,2.8,2.7,4.4c0.7-0.1,1.3-0.3,2.3-0.5
		c-0.3-1.9-0.6-3.6-1-5.3c-1.2-4.7-0.1-4.5-6-5.7c-4.8-0.9-9.4-0.2-13.5,2.8c-5.9,4.4-7.6,14,0.2,19.1c2.1,1.4,4.4,2.5,6.7,3.7
		c1.4,0.8,2.9,1.4,4.1,2.4c1.1,0.9,2.1,2,2.8,3.2c1.6,2.8,1.1,6.9-0.8,9c-2.1,2.3-5.4,3-8.6,1.5c-1.5-0.7-3-1.9-4.2-3.1
		c-2.1-2.1-3.4-4.8-4.4-7.6c-0.1-0.2-0.3-0.4-0.5-0.6C987.9,143.5,987.3,143.7,986.4,144z M632.4,234.3c-0.6-2.7-1.1-5.1-1.6-7.5
		c-0.3-1.5-1.2-2.3-2.7-2.7c-3.5-0.9-6.9-1.2-10.4-0.5c-5.5,1.2-9.8,5.3-10.6,10.5c-0.9,5.6,1.6,9.4,6.2,12.1c1.9,1.1,4,2,5.9,3.1
		c1.8,1,3.7,2,5.1,3.4c2.8,2.7,3,7.7,0.8,10.6c-2.2,2.8-6.5,3.4-10,1.3c-1.1-0.7-2.3-1.6-3.1-2.6c-1.4-1.9-2.5-4-3.7-6.1
		c-0.4-0.6-0.6-1.3-0.9-2.1c-0.7,0.2-1.3,0.4-2.2,0.7c0.3,3.1,0.6,6.1,0.9,9.2c0.1,1.1,0.7,1.9,1.7,2.4c6.5,3.5,13.1,3.9,19.7,0.3
		c8.2-4.5,9.1-15.8,1.3-21.1c-2.1-1.4-4.5-2.4-6.7-3.7c-2.1-1.2-4.4-2.4-6.3-3.8c-1.9-1.4-2.7-3.6-2.4-6c0.9-5.7,6.2-6.7,9.8-5.1
		c2,0.9,3.4,2.4,4.5,4.2c0.8,1.3,1.5,2.6,2.4,4C630.8,234.8,631.5,234.6,632.4,234.3z M641.1,254.5c0.3,3.2,0.6,6.3,0.9,9.3
		c0.1,1.2,0.9,2,1.9,2.5c6.1,3.2,12.4,3.6,18.7,0.6c9-4.3,10.3-16.4,1.7-21.9c-2-1.3-4.2-2.2-6.3-3.4s-4.2-2.3-6.1-3.7
		c-2-1.5-2.9-3.6-2.5-6.1c0.9-5.6,6.2-6.7,9.8-5c2,0.9,3.4,2.4,4.5,4.2c0.8,1.3,1.5,2.6,2.4,4c0.7-0.2,1.4-0.4,2.2-0.6
		c-0.2-1.3-0.4-2.5-0.6-3.6c-1.4-6.6-1.8-7.1-8.5-7.5c-4.8-0.3-9.2,0.9-12.7,4.4c-4.2,4.2-5.7,12.8,1.4,17.5c2,1.4,4.3,2.5,6.4,3.7
		c1.5,0.9,3.1,1.6,4.6,2.5c1.8,1.2,3.1,2.8,3.6,4.9c0.6,2.9,0.3,5.6-2,7.8c-2.3,2.2-5.1,2.4-7.8,1.3c-1.4-0.6-2.8-1.5-4-2.6
		c-2-1.8-3.3-4.1-4.3-6.6c-0.3-0.7-0.6-1.5-0.9-2.3C642.7,254.1,642.1,254.3,641.1,254.5z M722,144c0.3,3,0.7,6,1,9
		c0.1,1.4,0.8,2.3,2,2.7c2.1,0.8,4.3,1.9,6.5,2.3c6.1,1,11.7-0.1,16.1-4.7c4.9-5.1,4.5-13.1-0.9-17.7c-2.3-1.9-4.9-3.3-7.6-4.4
		c-2.5-1-4.8-2.2-6.7-4.1c-2.4-2.4-2.8-5.7-1.1-8.5c1.6-2.6,4.9-3.7,8-2.6c2.1,0.7,3.7,2.1,5,4c0.9,1.4,1.8,2.8,2.7,4.4
		c0.7-0.1,1.3-0.3,2.3-0.5c-0.6-2.7-1.2-5.3-1.7-7.8c-0.3-1.4-1.1-2-2.3-2.4c-3-0.9-6-1.2-9-0.8c-4,0.5-7.5,2.2-10,5.5
		c-3.4,4.4-3.9,11.8,2,15.9c2.1,1.5,4.5,2.7,6.8,4c1.2,0.7,2.5,1.1,3.6,1.9c1.1,0.7,2.2,1.6,3.1,2.6c2.4,2.8,2.5,7.3,0.3,10
		c-2.1,2.7-5.8,3.5-9.3,1.7c-1.4-0.7-2.7-1.8-3.8-2.9c-2-2.1-3.3-4.7-4.3-7.4c-0.1-0.3-0.3-0.5-0.5-0.8
		C723.5,143.5,722.9,143.7,722,144z M1152.5,117.5c0,1.1,0,2,0,2.9c0,8.3,0,16.6,0,25c0,2.6,0.1,5.1,1.1,7.5
		c1.7,4.1,6.3,6.6,10.4,5.2c3.3-1.2,6.3-2.9,9.6-4.5c-0.4-0.8-0.7-1.4-0.9-1.9c-1.8,0.5-3.4,1.2-5.2,1.4c-3.2,0.5-5.7-1.1-6.5-4.3
		c-0.4-1.6-0.6-3.3-0.6-5c-0.1-8,0-16,0-24c0-0.7,0.1-1.4,0.2-2.3c3.2,0,6.2,0,9.2,0c2.4,0,3.1-1.3,1.9-3.8c-3.6,0-7.4,0-11.4,0
		c0-4.3,0-8.4,0-13.1c-1.1,0.6-1.8,0.9-2.3,1.4c-1.4,1.3-2.7,2.8-4.1,4.1c-1,0.9-1.5,2-1.4,3.4s-0.1,2.8-0.1,4.3
		c-3.3-0.2-6.2-0.1-7.5,3.7C1147.5,117.5,1149.8,117.5,1152.5,117.5z M1034.7,113.8c0-4.5,0-8.6,0-13.3c-1,0.7-1.6,1-2.1,1.4
		c-1.5,1.4-2.9,3-4.4,4.4c-0.9,0.8-1.2,1.8-1.2,3c0.1,1.4,0,2.8,0,4.4c-3.3-0.2-6.2-0.1-7.5,3.5c2.5,0.8,5-0.1,7.5,0.7
		c0,0.9,0,1.8,0,2.7c0,8.4-0.1,16.8,0,25.2c0,2.3,0.3,4.7,1,6.8c1.6,5,7.1,7.2,11.9,5c2.5-1.2,5-2.5,7.5-3.8
		c0.2-0.1,0.3-0.3,0.5-0.6c-0.3-0.5-0.6-1.1-0.9-1.6c-1.6,0.5-3.1,1.1-4.7,1.4c-3.6,0.6-6.1-1-7-4.5c-0.5-1.9-0.7-3.9-0.7-5.9
		c-0.1-7.6,0-15.2,0-22.8c0-0.7,0.1-1.4,0.2-2.3c3.2,0,6.2,0,9.2,0c2.5,0,3.1-1,2.1-3.8C1042.6,113.8,1038.9,113.8,1034.7,113.8z
		 M981.3,151.6c-1.7,0.5-3,1.2-4.4,1.4c-4,0.8-6.7-1.1-7.5-5.1c-0.3-1.4-0.4-2.9-0.4-4.3c0-8,0-16,0-24c0-0.6,0.1-1.2,0.1-2
		c0.8-0.1,1.5-0.1,2.2-0.1c2.2,0,4.5,0,6.7,0c2.7,0,3.3-0.9,2.4-3.8c-3.7,0-7.5,0-11.6,0c0-4.4,0-8.5,0-13.1c-1,0.6-1.7,0.9-2.1,1.3
		c-1.5,1.4-2.9,3-4.4,4.4c-0.9,0.8-1.2,1.8-1.2,3c0.1,1.4,0,2.8,0,4.5c-3.3-0.3-6.2-0.1-7.6,3.4c2.5,0.9,5,0,7.6,0.6
		c0,0.9,0,1.8,0,2.6c0,8.5,0,16.9,0,25.4c0,2.4,0.2,4.8,1.1,7.1c1.7,4.1,6.3,6.6,10.4,5.2c3.3-1.2,6.3-2.9,9.6-4.5
		C981.8,152.7,981.5,152.2,981.3,151.6z M844.1,228.7c1,0.2,1.8,0.3,2.7,0.5c3.2,0.7,3.8,1.4,3.8,4.7c0,0.2,0,0.5,0,0.7
		c0,8.3,0,16.6,0,24.9c0,0.7,0,1.4-0.1,2.2c-0.2,1.8-1.2,2.9-3,3.3c-1.2,0.2-2.3,0.4-3.7,0.7c0,0.7,0.1,1.4,0.1,2c7.6,0,15,0,22.6,0
		c0-0.8-0.1-1.4-0.1-2.1c-0.9-0.1-1.6-0.1-2.3-0.2c-0.8-0.1-1.6-0.2-2.4-0.4c-2.4-0.6-3.2-1.5-3.4-4c0-0.6,0-1.1,0-1.7
		c0-6.2,0.1-12.5,0-18.7c-0.1-4,1.9-6.6,4.7-8.9c1.8-1.4,3.9-1.4,5.8-0.1c0.4,0.3,0.8,0.5,1.1,0.9c1,0.9,2,0.8,3.1,0.2
		c1.9-1,2.9-2.7,2.9-4.7c0-2.1-1.4-3.5-3.3-4.3c-2.3-1-4.4-0.2-6.3,1c-2.6,1.7-4.5,4-6.3,6.5c-0.4,0.5-0.8,1-1.6,2
		c0-3.7,0-6.8,0-9.9c-4.7,1.2-9.1,2.4-13.6,3.6C843.8,227.1,843.9,227.7,844.1,228.7z M583.7,208.2c-2.5-0.1-4.5,1.9-4.5,4.5
		c0,2.5,1.7,4.4,4.3,4.5c2.5,0.1,4.4-1.7,4.5-4.2C588,210.4,586.1,208.3,583.7,208.2z M570.5,212.9c0-2.6-1.9-4.7-4.4-4.6
		c-2.4,0-4.3,1.9-4.4,4.4c-0.1,2.6,1.8,4.6,4.4,4.6C568.6,217.3,570.5,215.4,570.5,212.9z"/>
	<path d="M378.4,45.5c0.1,1.5,0.2,3,0.2,4.5c0,108.3,0,216.5,0,324.8c0,1.3-0.1,2.5-0.2,3.8c-110.9,0-221.7,0-332.6,0
		c0-111,0-222,0-333.1C156.6,45.5,267.5,45.5,378.4,45.5z M167.6,152.4c0.9-0.5,1.6-0.8,2.3-1.2c5.7-2.7,11.4-5.4,17.1-8.2
		c6.7-3.3,13.3-6.7,19.3-11.2c2.3-1.7,4.5-3.6,6.3-5.8c2.4-2.8,1.8-5.6-1.4-7.4c-2-1.1-4.2-2-6.4-2.6c-8.5-2.3-17.3-3.1-26.1-3.8
		c-10.8-0.8-21.7-1.3-32.6-1.9c-9.4-0.5-18.8-1-28.3-1.7c-4.9-0.4-9.7-1.1-14.5-1.9c-2.3-0.4-4.6-1.2-6.8-2.3s-2.2-2.6-0.2-4
		c1.6-1.1,3.3-2.1,5.1-2.7c7-2.4,13.9-4.9,21-6.7c23.9-6.1,47.9-11.9,71.9-17.8c20.6-5.1,41.3-10.1,61.6-16.4
		c8.1-2.5,16.1-5.2,23.9-8.7c1-0.4,1.9-0.9,2.8-1.4c0-0.2-0.1-0.3-0.1-0.5c-0.8,0-1.7,0-2.5,0c-15.6,0-31.2,0-46.8,0
		c-2.9,0-5.8,0-8.6,0c-1,0-1.7,0.3-2.4,1.1c-1.2,1.3-2.5,2.5-4,3.4c-3,1.7-6,3.3-9.2,4.7c-12,5.1-24.4,8.6-36.9,12.1
		c-26.7,7.4-53.8,13.5-80.7,20.2c-13.8,3.4-27.6,7-41.3,10.6C49,98.6,48,99,47,99.3c0,5.3,0,10.4,0,15.7c0.8,0.2,1.6,0.4,2.4,0.4
		c4.4,0.3,8.8,0.8,13.2,1c11.7,0.5,23.3,0.9,35,1.5c14.2,0.6,28.4,1.2,42.6,2.2c6,0.4,12.1,1.4,18,2.4c2.8,0.5,5.6,1.4,8.2,2.6
		c3.7,1.7,4.1,4.1,1.5,7.3c-1.1,1.4-2.4,2.6-3.8,3.7c-4.6,3.7-9.8,6.6-15.1,9.3c-0.7,0.4-1.7,0.4-2.5,0.3c-7.8-1-15.7-2.4-23.5-3
		c-12.8-0.9-25.7-1.2-38.6-1.6c-10.6-0.3-21.3-0.3-31.9-0.4c-1.8,0-3.6,0-5.5,0c0,6.5,0,12.7,0,19c19.4,1.8,38.7,3,57.9,6.1
		c-0.7,0.6-1.4,0.9-2.1,1.2c-6.5,3-12.9,5.9-19.3,9c-6.5,3.1-13,6.3-18.9,10.4c-1.9,1.4-3.8,3-5.4,4.7c-1.8,2-1.5,4.4,0.6,6.1
		c0.8,0.7,1.8,1.4,2.8,1.7c2,0.8,4.1,1.6,6.2,1.9c8.4,1.2,16.8,2.3,25.2,3.4c5.6,0.7,11.3,1.4,16.7,3.3c2.2,0.8,4.3,1.8,6.2,3
		c3.6,2.5,4.6,6.2,2.5,10.1c-1.1,2-2.4,4-4,5.7c-3.2,3.3-6.4,6.6-10,9.3c-9.8,7.4-19.9,14.6-29.8,21.8c-9,6.6-17.9,13.1-26.9,19.6
		c-1.4,1-1.8,2.1-1.8,3.8c0.1,18,0.1,36-0.1,54c0,3.5,0.9,5.6,4,7.5c7.4,4.4,14.6,9.2,21.8,14c8.9,5.9,17.2,12.5,24.2,20.6
		c0.8,0.9,1.7,1,2.7,1c9.8,0,19.7,0,29.5,0c0.6,0,1.2-0.1,1.9-0.2c1.3-2.7,2.6-5.2,3.9-7.8c4.2-9,7.7-18.2,9.2-28.2
		c1.2-7.9-1.1-14.3-7.5-19c-3-2.2-6.2-4.3-9.5-6c-7.6-4-15.7-6.7-23.8-9.5c-6.8-2.3-13.6-4.7-20.4-7.1c-0.8-0.3-1.5-0.7-2.5-1.1
		c1.9-2.4,3.6-4.6,5.3-6.6c9.4-11.2,19.6-21.6,29.7-32c10.7-11.1,21.5-22.2,31.5-34c8.3-9.7,16.1-19.7,22.2-31
		c4.3-7.9,7.5-16.2,8.5-25.3c0.7-7.1-1.8-12.5-7.6-16.5C169.2,153.6,168.5,153.1,167.6,152.4z M306.9,120.9c0.1,0.2,0.2,0.4,0.3,0.5
		c-1.9,1.6-3.8,3.1-5.7,4.7c-0.7-0.4-1.2-0.8-1.7-1.1c-5.3-3.8-10.7-7.6-16-11.5c-0.5-0.3-0.9-0.6-1.4-1c-1.1-1-1.2-1.4-0.4-2.7
		c0.8-1.2,1.7-2.3,2.5-3.5c1.3-1.9,1.1-3-1-4c-1.5-0.7-2.6-1.6-3.4-3.1c-2.1-3.9-6.3-5.7-10.8-4.9c-3.9,0.6-7.3,4.1-8,8
		c-0.8,4.5,1.1,8.6,4.9,10.9c0.6,0.4,1.2,0.7,1.7,1c0,4.2,0,8.1,0,12.3c-5.9,0-11.6,0-17.4,0c0,1.4,0,2.6,0,4c5.9,0,11.6,0,17.4,0
		c0,22,0,43.8,0,66.1c-1.5-1.4-2.7-2.4-3.8-3.6c-3.7-4.2-5-9.1-4.8-14.7c0.1-2.1,0.2-3.8,2.2-4.8c0.4-0.2,0.7-0.4,1.1-0.6
		c-2.2-4.5-4.3-8.5-6.5-13.1c-2.3,4.6-4.4,8.7-6.4,12.8c3.1,2.8,3.1,2.8,3.1,6.9c0,0.3,0,0.6,0,1c0.3,10.8,6.2,19.3,16,23.1
		c1.6,0.6,3,0.7,4.6,0c4.7-1.9,8.7-4.8,11.6-8.9c0.7-1.1,1.5-1.4,2.8-1.4c3.4,0.1,6.7,0,10.1,0c4.3,0,4.3,0,5.7-4.2
		c1.3-4.2,2.6-8.4,4.1-12.5c1.6-4.5,5.8-7.3,10.1-7c0,0.4,0.1,0.8,0.1,1.2c0,2.7,0,5.4,0,8.2c0,2.7,1.3,4.8,3.8,5.9
		c1.1,0.5,2.3,0.6,3.5,0.6c3.7,0.1,7.4,0,11,0c1.9,0,2.4,0.6,2.4,2.5c0,3.7-2.9,6.9-6.6,7.3c-1.1,0.1-2.2,0-3.4,0.1
		c-2.3,0.2-3.7,1.5-3.8,3.8c-0.1,1.2,0,2.4,0,3.4c0.4,0.2,0.5,0.3,0.7,0.3c4.7,0,9.4,0,14.2,0.1c1.3,0,2-0.8,2.4-1.9
		c1.8-5,3.7-10.1,5.4-15.1c0.8-2.5-0.2-4.6-2.5-5.8c-1.2-0.6-2.5-1.1-3.7-1.7c-2.2-1-4.4-1.9-6.4-2.9c0-0.6-0.1-0.9-0.1-1.2
		c-0.1-4.5,0.3-4.9,4.9-5c5.1-0.1,8.7-4.8,7.3-9.8c-0.2-0.7-0.4-1.3-0.6-1.9c7-9.1,7-18.1,0.3-27.2c5.2-6.5,6.3-13.6,3.4-21.3
		c0.2-0.3,0.3-0.5,0.5-0.7c2.2-2,2.4-4.4,1.1-6.9c-0.2-0.4-0.4-0.9-0.6-1.3c-0.9-2-1.2-4.1-0.3-6.3c0.1-0.2,0.1-0.5,0.1-1.1
		c-0.5,0.3-0.8,0.5-1,0.7c-4.6,4.1-6.2,10.6-3.8,16.4c1,2.6,1.8,5.1,1.6,7.9c-0.3,3.8-1.5,7.1-4.3,10c-1.4-1.3-2.3-2.7-2.9-4.2
		c-2-4.4-1.9-8.8,0-13.2c2.5-5.8,1.4-11.1-2.6-15.8c-0.5-0.6-1.2-1-1.8-1.5c1.1,3.1,0.4,5.7-0.9,8.3c-0.2,0.4-0.4,0.7-0.5,1.1
		c-0.7,1.9-0.6,3.8,0.9,5.4c0.4,0.4,0.7,0.8,1.1,1.2c-2.9,7.9-1.8,15.1,3.5,21.5c-0.4,0.6-0.7,1-1,1.3c-6.1,8.3-5.3,19.2,2.1,26.4
		c0.3,0.3,0.7,0.6,1,1c1.3,1.6,1.1,3.9-0.4,5.2c-1.5,1.4-3.7,1.2-5.1-0.4c-0.5-0.6-0.9-1.3-1.2-2c-3.9-9.4-7.8-18.7-11.7-28.1
		c-0.5-1.1-0.5-2.1,0.2-3.1c1.3-2.3,2.6-4.6,3.8-7c4-7.8,1.5-17-5.9-21.7c-0.5-0.3-1.1-0.7-1.7-1c0.4-2.4,0.7-4.7,1.2-7.5
		c-1.9,1.4-3.5,2.5-5.1,3.6c-1.3-1.7-2.5-3.2-3.9-4.9c-1.3,1.8-2.5,3.3-3.7,4.9c-1.6-1.2-3.2-2.3-5.1-3.7c0.4,2.7,0.7,5,1.1,7.2
		c-0.3,0.1-0.4,0.3-0.5,0.3c-1.1,0-2.2,0.1-3.4,0.1c-2.9,0-2.9,0.1-2.9,3c0,0.7,0,1.4,0,2.2c0,2.3,0.2,2.5,2.4,2.5
		c1.4,0,2.9-0.1,4.3,0c2.1,0.1,3.6,1.3,3.8,3c0.2,1.6,0,3.3,0,5.1c-2.4,0-4.4,0-6.5,0c-1.9,0-2.2,0.4-2.2,2s0.3,1.8,2.3,1.9
		C303.6,121,305.3,120.9,306.9,120.9z M46.9,83.4c6-1.3,95.2-35,97.6-37c-0.4,0-0.7-0.1-1-0.1c-8.1,0-16.2,0-24.2,0
		c-0.9,0-1.9,0.2-2.8,0.5c-22.3,7.8-44.6,15.7-66.9,23.5c-0.9,0.3-1.8,0.7-2.7,1C46.9,75.5,46.9,79.4,46.9,83.4z M305.4,114.7
		c0-2.2-0.9-3.3-2.9-3.4c-1.6-0.1-3.2,0-4.8,0c-3.5,0-4.6-1.1-4.7-4.5c0-0.6-0.1-1.2-0.2-2c-2.2,1.6-2.6,3.6-2,5.7
		c0.5,2,2.3,3.6,4.5,3.8c1.9,0.1,3.8,0,5.8,0.1C302.4,114.3,303.8,114.5,305.4,114.7z"/>
	<path d="M479.9,267.7c0-0.5-0.1-0.9-0.1-1.2c0-0.2,0.1-0.5,0.1-0.8c1.5-0.2,3.1-0.5,4.6-0.7c2.6-0.4,4-1.9,4.3-4.5
		c0.2-1.6,0.4-3.2,0.4-4.8c0-14,0-28,0-42c0-1.3-0.2-2.5-0.4-3.8c-0.3-2.4-1.7-3.9-4.1-4.4c-1.2-0.2-2.5-0.4-3.9-0.6
		c-0.1-0.6-0.1-1.2-0.2-1.8c0.4-0.1,0.6-0.3,0.8-0.3c10.9,0,21.9-0.1,32.8,0.1c4.6,0.1,9.1,1,13.3,2.7c10.6,4.2,16.2,12.3,17.4,23.5
		c0.5,4.7,0.1,9.4-1.2,14c-2.8,10-9.5,16.6-18.9,20.6c-6.7,2.8-13.8,3.9-21.1,3.9c-7.5,0.1-15,0-22.5,0
		C480.9,267.8,480.5,267.7,479.9,267.7z M497.6,233c0,7.4,0,14.9,0,22.3c0,1.5,0.2,3,0.3,4.5c0.2,2,1.4,3.4,3.3,4
		c1.1,0.3,2.4,0.6,3.5,0.6c3-0.1,6.1-0.1,9.1-0.6c9.6-1.8,16.3-7.2,19.6-16.4c3-8.2,2.8-16.6,0.5-25c-2.3-8.6-8.2-13.6-16.7-15.7
		c-5-1.2-10.1-1.1-15.3-1c-4,0.1-4.4,0.5-4.4,4.4C497.6,217.8,497.6,225.4,497.6,233z"/>
	<path d="M776,224.1c0.1-1,0.1-1.8,0.1-2.6c0-4.6,0.1-9.1,0.1-13.7c0-0.2,0-0.3,0-0.5c-0.1-3.7-1-4.6-4.7-5
		c-0.9-0.1-1.7-0.1-2.7-0.2c0-0.7,0-1.3,0-1.9c5-1.1,10-2.3,15.2-3.4c0,1.1,0,2,0,2.9c0,19.3,0,38.7,0,58c0,4.9,0.2,5.1,5.1,5.2
		c0.6,0,1.3,0,2.1,0c0,0.8,0.1,1.5,0.1,2.1c-5,1.3-9.9,2.5-15.1,3.8c0-1.8,0-3.7,0-5.9c-0.9,0.4-1.5,0.6-2,0.9
		c-2.3,1.2-4.7,2.5-7,3.7c-2.8,1.5-5.6,1.6-8.6,0.8c-8.4-2.4-14.3-9.9-15-18.5c-1.1-13.6,8.4-23.2,19.4-25.8
		C767.3,223.1,771.5,222.7,776,224.1z M776.1,245.4c0-4.2-0.1-8.5,0-12.7c0-1.5-0.5-2.6-1.7-3.5c-0.7-0.5-1.5-1-2.3-1.3
		c-7.7-3.1-15.9,0.6-18.6,8.5c-1.8,5.4-2,11-0.1,16.5c1.7,5.1,4.9,8.9,10.5,10.2c3.6,0.8,6.9-0.3,10.1-1.9c1.4-0.7,2.1-1.6,2.1-3.3
		C776,253.7,776.1,249.5,776.1,245.4z"/>
	<path d="M661.5,113.6c0-1.2,0-1.9,0-2.7c0-4.3,0-8.6,0-12.9c0-0.6,0-1.1,0-1.7c-0.2-3.1-1-3.8-4.1-4.2c-1.1-0.1-2.2-0.3-3.4-0.5
		c0-0.6,0-1.1,0-1.8c2.5-0.5,5-1,7.5-1.6s4.9-1.2,7.7-1.9c0,1.2,0,2.1,0,3c0,19.3,0,38.5,0,57.8c0,0.9,0,1.8,0.1,2.6
		c0.2,1.9,0.9,2.5,2.7,2.7c0.7,0.1,1.4,0,2.2,0c0.7,0,1.4,0.1,2.3,0.1c0,0.7,0.1,1.3,0.1,2c-5,1.3-9.9,2.5-15.1,3.8
		c0-1.9,0-3.7,0-5.8c-0.8,0.3-1.4,0.5-1.9,0.8c-2.4,1.3-4.8,2.6-7.2,3.8c-2.6,1.4-5.3,1.5-8.1,0.8c-8.4-2.2-14.6-9.7-15.3-18.5
		c-1.2-14.1,9.1-24.1,21-26.2C653.6,112.5,657.3,112.4,661.5,113.6z M661.5,134.8c0-4.2-0.1-8.3,0-12.5c0-1.6-0.6-2.8-1.8-3.7
		c-0.8-0.6-1.6-1.1-2.5-1.4c-8.1-2.7-15.7,0.4-18.5,9c-1.5,4.7-1.6,9.6-0.5,14.4c0.7,2.8,2,5.4,3.9,7.6c5.7,6.4,13.4,4.8,18.5,1.5
		c0.9-0.6,0.8-1.5,0.8-2.3C661.5,143.2,661.5,139,661.5,134.8z"/>
	<path d="M1119.7,91.5c-0.1-0.9-0.4-1.7,0.8-1.9c4.7-1,9.5-2.1,14.5-3.2c0,1.1,0,2,0,3c0,19.2,0,38.4,0,57.6c0,0.9,0,1.8,0.1,2.6
		c0.3,2.1,1,2.8,3.1,2.9c1.3,0.1,2.7,0,4.2,0c0,0.8,0.1,1.4,0.1,2.1c-5,1.3-10,2.5-15.1,3.8c0-1.8,0-3.7,0-5.9
		c-0.9,0.4-1.5,0.6-2,0.8c-2.2,1.2-4.4,2.3-6.5,3.5c-3.2,1.9-6.5,1.9-9.9,0.7c-8.3-2.8-13.9-10.5-14.2-19.4
		c-0.4-11.5,7.2-21.4,18.8-24.4c4.5-1.2,9-1.5,13.4-0.2c0.2-0.3,0.3-0.4,0.3-0.5c0-5.6,0.1-11.2,0-16.8c0-2.9-0.9-3.7-3.9-4.1
		C1122.2,91.8,1121,91.7,1119.7,91.5z M1127.3,134.8c0-4.2-0.1-8.3,0-12.5c0.1-1.9-0.7-3.1-2.1-4c-0.8-0.5-1.7-1-2.6-1.3
		c-8.3-2.7-16.2,1.6-18.3,10.1c-1,4-1.3,8.1-0.5,12.1c0.4,1.8,0.9,3.6,1.7,5.2c4,8.1,12,10.4,20,5.9c1.3-0.7,1.8-1.5,1.8-3
		C1127.2,143.2,1127.3,139,1127.3,134.8z"/>
	<path d="M776.9,157.2c-6.6,0-12.7,0-18.9,0c-0.6,0-1.3,0-2.1,0c0-0.8,0-1.5,0-2.2c1.2-0.2,2.4-0.4,3.6-0.7c1.8-0.4,2.8-1.5,2.9-3.3
		c0.1-1.4,0.1-2.9,0.1-4.3c0-15.6,0-31.2,0-46.8c0-1.6,0.1-3.2,0-4.8c-0.2-2-0.8-2.6-2.8-3c-1.2-0.3-2.5-0.4-3.9-0.6
		c-0.1-0.5-0.1-1-0.2-1.7c4.8-1.1,9.5-2.3,14.6-3.5c0.1,1,0.2,1.9,0.2,2.8c0,9,0,18.1,0,27.1c0,0.9,0,1.7,0,3.1c1-0.7,1.5-1.1,2-1.5
		c2.7-2.2,5.6-3.9,9.1-4.7c9.4-2.2,16.7,3.4,16.9,13c0.2,7.4,0,14.7,0,22.1c0,0.9,0,1.8,0.1,2.6c0.2,2.2,1,3.1,3.2,3.6
		c1,0.2,2,0.4,3.2,0.6c0,0.7,0,1.3,0,2.1c-7,0-13.8,0-20.8,0c-0.1-0.7-0.1-1.3-0.2-2c1.1-0.2,2.1-0.4,3.1-0.6
		c2.5-0.5,3.2-1.3,3.6-3.8c0.1-0.5,0.1-1,0.1-1.4c0-6.6,0-13.1,0-19.7c0-1.4-0.2-2.9-0.5-4.3c-1-4.6-4.1-7.1-8.9-7.2
		c-3.4-0.1-6.6,1-9.4,3.1c-1.1,0.9-1.6,1.8-1.6,3.3c0.1,8,0,16,0,24c0,5,0.6,5.6,5.5,6.4c0.2,0,0.5,0.1,0.9,0.2
		C776.8,155.6,776.8,156.3,776.9,157.2z"/>
	<path d="M926.9,178.1c0,0.8-0.1,1.4-0.1,2.1c-8,0-15.8,0-23.7,0c0-0.7,0-1.3,0-2c0.2-0.1,0.4-0.2,0.7-0.3c0.9-0.2,1.9-0.2,2.8-0.4
		c2.4-0.5,3.2-1.4,3.5-3.9c0.1-0.6,0.1-1.3,0.1-1.9c0-16.1,0-32.1,0-48.2c0-0.3,0-0.6,0-1c-0.1-3.2-0.9-4.1-4.1-4.5
		c-0.9-0.1-1.9-0.2-2.8-0.3c-0.5-1-0.4-1.7,0.6-2c4.5-1.3,9.1-2.5,13.9-3.9c0,2.3,0,4.4,0,6.9c1.1-0.5,1.8-0.8,2.5-1.1
		c2.4-1.1,4.8-2.3,7.1-3.5c5.2-2.6,10.2-1.6,14.7,1.5c4.7,3.2,7.1,8,7.5,13.6c0.8,11.6-5,21.2-15.8,26.2c-2,0.9-4.2,1.6-6.3,2.3
		c-2.8,1-5.5,0.7-8.2-0.5c-0.4-0.2-0.9-0.3-1.6-0.5c0,1.9,0,3.7,0,5.4c0,3.4,0,6.9,0,10.3c0,3.5,1,4.5,4.4,5.1
		C923.8,177.7,925.2,177.9,926.9,178.1z M941.6,136c0.1-3.3-0.3-6.4-1.6-9.4c-1.9-4.6-5.2-7.5-10.3-8.3c-3.6-0.6-6.8,0.6-9.8,2.3
		c-1.4,0.7-2,1.7-2,3.4c0.1,7.9,0.1,15.8,0,23.7c0,1.9,0.7,3,2.1,3.9c5,3.2,12.8,3.4,17.8-3C940.7,144.8,941.7,140.6,941.6,136z"/>
	<path d="M591.5,112.7c0,2.3,0,4.5,0,6.9c0.7-0.4,1.2-0.6,1.6-0.8c2.3-1.4,4.6-2.9,6.9-4.3c2.3-1.3,4.8-2,7.6-1.8
		c6.9,0.4,11.4,4.8,11.7,11.8c0.1,2.2,0,4.3,0,6.5c0,5.6,0,11.2,0,16.8c0,0.9,0,1.8,0.1,2.6c0.2,2.8,0.9,3.6,3.6,4.2
		c0.8,0.2,1.5,0.3,2.5,0.5c0,0.6,0.1,1.2,0.1,2c-7,0-13.9,0-21,0c0-0.7,0-1.3,0-1.9c0.3-0.1,0.5-0.2,0.7-0.3c1-0.2,2.1-0.3,3.1-0.5
		c1.9-0.3,2.9-1.6,3.1-3.4c0.1-0.7,0.1-1.4,0.1-2.2c0-6.6,0-13.3,0-19.9c0-1.2-0.1-2.4-0.3-3.6c-1.2-5.6-4.3-7.2-9.5-7.1
		c-3.6,0.1-6.6,1.7-9.4,3.8c-0.7,0.5-1,1.2-1,2c0,8.7,0,17.4,0,26.1c0,2.9,0.8,3.7,3.8,4.3c0.7,0.2,1.4,0.3,2.3,0.4
		c0.1,0.3,0.2,0.7,0.3,1c0,0.3-0.1,0.6-0.1,1.1c-7,0-14.1,0-21.1,0c-0.1-0.3-0.2-0.5-0.3-0.7c0-0.4,0-0.8,0.1-1.3
		c1.4-0.2,2.7-0.4,4-0.7c1.8-0.4,3-1.4,3.2-3.3c0.1-1,0.2-1.9,0.2-2.9c0-7.8,0-15.7,0-23.5c0-5.4-1-5.8-5.4-6.3
		c-0.7-0.1-1.6-0.1-1.5-1.1c0-0.4,0.6-0.9,1.1-1C582.3,115,586.7,113.9,591.5,112.7z"/>
	<path d="M877.8,116.7c0-0.5,0-1,0-1.7c5-0.6,10-1.2,15.3-1.8c0,0.9,0.1,1.9,0.1,2.8c0,9.8,0,19.7,0,29.5c0,1.3,0.1,2.6,0.1,3.8
		c0.2,2.7,0.6,3.1,3.4,3.2c1.2,0,2.4,0,3.7,0c0,0.9,0,1.5,0,2.1c-4.9,1.2-9.7,2.4-14.6,3.6c-0.8-2.3-0.1-4.6-0.6-7.1
		c-0.6,0.3-1.1,0.6-1.6,0.9c-2.2,1.4-4.4,3-6.6,4.3c-2.8,1.7-5.8,2.2-9,1.9c-5.3-0.5-9.1-3.8-10-9.1c-0.3-1.6-0.4-3.3-0.5-5
		c0-6.9,0-13.8,0-20.6c0-0.7,0-1.4,0-2.2c-0.2-2.9-0.8-3.5-3.7-4c-0.8-0.1-1.5-0.3-2.3-0.5c-0.2-1.9-0.2-2,1.2-2.2
		c4-0.5,8.1-1,12.4-1.5c0,0.9,0.1,1.7,0.1,2.6c0,8.3,0,16.6,0,24.9c0,2.1,0.3,4.2,0.8,6.1c1,3.8,3.9,5.9,7.8,5.8
		c4.2,0,7.7-1.9,10.9-4.5c0.8-0.7,0.7-1.6,0.7-2.4c0-6.4,0-12.8,0-19.2c0-1.8,0-3.7,0-5.5c-0.1-2.4-0.9-3.3-3.3-3.6
		c-1.3-0.2-2.5-0.3-3.8-0.5C878.2,117,878.1,116.9,877.8,116.7z"/>
	<path d="M550.8,227.5c0-0.7,0-1.3,0-1.9c4.6-0.6,9.1-1.2,13.9-1.8c0,0.9,0.1,1.8,0.1,2.6c0,8.2,0,16.3,0,24.5
		c0,1.8,0.2,3.7,0.5,5.5c0.9,4.8,4.4,7.5,9.3,7c3.7-0.4,6.8-2.1,9.6-4.5c0.5-0.4,0.7-1.2,0.7-1.9c0-8.3,0.1-16.6,0-25
		c0-2.7-0.7-3.5-3.5-3.9c-0.9-0.1-1.9-0.2-2.9-0.3c-1.4-0.2-1.4-0.3-1.2-2.1c5-0.6,10-1.2,15.2-1.8c0,0.9,0.1,1.7,0.1,2.6
		c0,10.2,0,20.5,0,30.7c0,1.1,0,2.2,0.2,3.3c0.2,2,0.6,2.3,2.5,2.5c1.5,0.2,3,0.3,4.5,0.4c0.4,1.2,0.3,1.9-1,2.2
		c-4.2,1-8.4,2-12.6,3c-0.3,0.1-0.6,0-1.3,0c-0.1-2.3-0.1-4.6-0.2-7.1c-0.9,0.6-1.5,1.1-2.2,1.5c-2.2,1.4-4.4,3-6.7,4.2
		c-3.6,2-7.5,2.2-11.4,0.9c-3.4-1.1-5.8-3.4-6.7-6.9c-0.4-1.7-0.8-3.4-0.8-5.2c-0.1-7.3-0.1-14.6-0.1-21.8c0-0.7,0-1.4,0-2.2
		c-0.1-2.9-0.8-3.7-3.8-4.2C552.4,227.8,551.7,227.7,550.8,227.5z"/>
	<path d="M526.3,141.4c0.4,0,0.8,0,1.2,0c0.3,0,0.6,0.2,1.1,0.3c-1.1,5.1-2.2,10.2-3.4,15.3c-15.1,0-30,0-45,0
		c-0.1-0.4-0.2-0.7-0.2-1s0.1-0.6,0.1-1c1.4-0.2,2.7-0.4,4-0.6c3-0.6,4.2-1.7,4.6-4.7c0.2-1.6,0.4-3.2,0.4-4.8c0-14,0-28-0.1-42
		c0-1.2-0.2-2.4-0.4-3.6c-0.5-2.7-1.6-3.9-4.3-4.5c-1.3-0.3-2.7-0.4-4.3-0.6c-0.1-0.6-0.1-1.2-0.2-2.1c9,0,17.7,0,26.6,0
		c0.1,0.2,0.3,0.4,0.3,0.6c0,0.5,0,0.9-0.1,1.5c-1.5,0.2-3,0.4-4.4,0.7c-2.9,0.6-4.2,1.8-4.6,4.8c-0.2,1.8-0.4,3.7-0.4,5.5
		c0,12.7,0,25.4,0,38.2c0,1.8,0.2,3.7,0.4,5.5c0.4,2.8,1.5,4,4.2,4.5c4.9,0.9,9.9,0.8,14.8-0.1c2.6-0.5,4.6-1.9,5.8-4.3
		C524,146.6,525.1,144.1,526.3,141.4z"/>
	<path d="M838.4,244.5c-0.1,6.4-1.3,11.4-4.6,15.7c-5.8,7.8-15.8,10.7-25.1,7.4c-8.7-3.1-14.5-11.9-14.2-21.3
		c0.2-6.9,2.5-13.1,7.8-17.6c7.1-6,15.2-7.4,23.7-3.5C834.6,229.2,838.1,236.5,838.4,244.5z M829.5,248.1c-0.1,0-0.1,0-0.2,0
		c-0.1-1.8-0.1-3.7-0.4-5.5c-0.3-1.9-0.7-3.8-1.3-5.6c-0.9-3-2.5-5.7-4.8-7.9c-4.7-4.3-11.5-3.7-15.4,1.3c-1.7,2.1-2.7,4.5-3.2,7.2
		c-1.1,5.8-0.8,11.5,1,17.1c0.9,2.8,2.2,5.3,4.1,7.5c4.5,5.1,14.3,6.4,18.3-3.2c0.3-0.7,0.5-1.4,0.7-2.1
		C828.7,253.9,829.1,251,829.5,248.1z"/>
	<path d="M833.8,152c-2.5,1.6-4.9,2.9-7.1,4.5c-6.6,4.8-15.3-1.1-16.3-8c-0.6-4.7,1.1-8.3,5.3-10.6c2-1.1,4.1-1.8,6.2-2.7
		c3.5-1.5,6.9-2.9,10.4-4.4c1.3-0.6,2-1.5,1.8-3c-0.2-1.8-0.1-3.7-0.6-5.5c-0.7-3.1-2.8-5-6-5.4c-3.3-0.5-6.1,0.4-7.8,3.5
		c-0.8,1.4-1.4,2.9-1.9,4.4c-0.4,1.1-0.8,2.1-2.2,2.3s-3.5-1-4.2-2.3c-0.7-1.2-0.1-2.2,0.6-3.1c0.5-0.6,1.1-1.2,1.7-1.7
		c4.5-3.5,9.5-6,15-7.2c5.7-1.3,11.6,2.6,12.5,8.3c0.2,1.3,0.3,2.7,0.3,4.1c0,7.3,0,14.6,0,21.8c0,1.1,0.1,2.3,0.4,3.3
		c0.6,2,1.7,2.5,3.7,2.1c0.9-0.2,1.8-0.6,2.9-0.9c0.3,0.6,0.6,1.1,1,1.8c-0.6,0.4-1.1,0.7-1.6,1c-2.2,1.1-4.5,2.2-6.7,3.3
		c-2,1-3.1,0.8-4.7-0.8c-0.7-0.7-1.2-1.7-1.7-2.6C834.4,153.6,834.2,152.9,833.8,152z M834,133c-4.5,1.9-8.7,3.5-12.4,6
		c-0.5,0.3-0.9,0.7-1.2,1.1c-2.8,3.1-2.2,8.9,1.1,11.4c1.6,1.2,3.4,1.9,5.4,1.1c2.1-0.9,4.2-1.9,6.2-3c0.5-0.3,0.9-1.1,0.9-1.7
		C834,143.1,834,138.3,834,133z"/>
	<path d="M1090.8,151.5c0.3,0.7,0.5,1.3,0.9,2c-3.2,1.6-6.3,3.1-9.4,4.5c-0.6,0.2-1.4,0.1-2-0.1c-1.4-0.5-2.3-1.7-3-3
		c-0.4-0.9-0.8-1.7-1.3-2.8c-0.6,0.4-1.2,0.7-1.8,1.1c-2.4,1.4-4.8,2.9-7.2,4.3c-1.4,0.9-3,0.9-4.6,0.7c-6.7-1.1-11.2-7.7-9.5-14.1
		c0.9-3.3,3.1-5.3,6.1-6.7c2.1-1,4.3-1.7,6.4-2.6c3-1.3,6-2.6,9-3.9c1.5-0.6,2.1-1.6,1.9-3.2c-0.3-2-0.3-4-0.8-5.9
		c-0.8-2.9-3-4.5-6-4.8c-3.1-0.4-5.8,0.4-7.4,3.2c-0.8,1.4-1.4,3-2,4.6c-0.4,1.2-0.9,2.3-2.4,2.3c-1.7,0-3.1-0.8-4-2.2
		c-0.8-1.2-0.2-2.3,0.7-3.3c0.6-0.6,1.2-1.2,1.9-1.8c4.4-3.3,9.2-5.7,14.6-7c6-1.4,12,2.8,12.7,8.9c0.1,1.2,0.1,2.4,0.1,3.6
		c0,7,0,13.9,0,20.9c0,1.3,0.1,2.6,0.4,3.8c0.5,2.2,1.8,2.9,3.9,2.3C1088.9,152.2,1089.7,151.9,1090.8,151.5z M1076.2,133.5
		c-0.2-0.1-0.4-0.3-0.6-0.4c-3.7,1.8-7.4,3.6-11.1,5.5c-0.6,0.3-1,0.8-1.5,1.2c-3.2,2.7-2.5,9.1,0,11.3c1.8,1.6,3.8,2.5,6.1,1.6
		c1.9-0.7,3.7-1.7,5.6-2.6c1.1-0.5,1.5-1.4,1.5-2.7c-0.1-3.4,0-6.7,0-10.1C1076.2,136,1076.2,134.7,1076.2,133.5z"/>
	<path d="M571.9,151.5c0.3,0.7,0.5,1.3,0.9,2c-3.3,1.6-6.4,3.2-9.6,4.6c-0.6,0.3-1.7,0-2.2-0.4c-1-0.8-1.9-1.9-2.7-3
		c-0.5-0.7-0.8-1.6-1.2-2.5c-0.6,0.4-1.2,0.7-1.8,1c-2.4,1.4-4.8,2.9-7.2,4.3c-1.4,0.8-2.8,1-4.4,0.7c-6.8-1-11.4-7.5-9.9-13.9
		c0.7-2.9,2.5-5,5.1-6.4c2.1-1.1,4.2-1.9,6.4-2.8c3.4-1.4,6.8-2.9,10.1-4.3c1.5-0.6,2.1-1.6,1.9-3.2c-0.3-2-0.3-4-0.8-5.9
		c-0.8-2.9-3-4.5-5.9-4.8c-3.1-0.4-5.8,0.4-7.4,3.2c-0.8,1.4-1.4,3-2,4.6c-0.4,1.2-0.9,2.3-2.4,2.3c-1.7,0-3.1-0.8-4-2.2
		c-0.8-1.2-0.2-2.3,0.7-3.3c0.6-0.7,1.4-1.4,2.1-1.9c4.3-3.2,9.1-5.6,14.4-6.8c6.1-1.4,12,2.8,12.7,8.9c0.1,1.1,0.1,2.2,0.1,3.4
		c0,7,0,13.9,0,20.9c0,1.3,0.1,2.7,0.4,4c0.5,2.2,1.8,2.9,3.9,2.3C570,152.2,570.8,151.9,571.9,151.5z M557.3,132.9
		c-4.4,2-8.4,3.5-12.1,5.9c-0.5,0.3-0.9,0.7-1.3,1.1c-3.1,2.8-2.3,9,0.1,11.1c1.9,1.7,3.9,2.5,6.4,1.6c2-0.8,3.9-1.9,5.8-2.8
		c0.9-0.5,1.1-1.2,1.1-2.2c0-2.8,0-5.6,0-8.4C557.3,137.3,557.3,135.4,557.3,132.9z"/>
	<path d="M881.4,267.7c0-0.7,0-1.3,0-2c1.1-0.2,2.2-0.4,3.3-0.7c2.2-0.6,2.8-1.4,3.1-3.7c0-0.5,0.1-1,0.1-1.4c0-9.9,0-19.8,0-29.7
		c0-0.6-0.1-1.1-0.1-1.7c-2.3-0.7-4.8,0.2-7.2-0.6c0.6-1.6,1.6-2.7,2.9-3.1c1.3-0.4,2.8-0.2,4.3-0.3c0.2-2.5,0.3-4.9,0.6-7.2
		c1.4-10.7,9.8-18.7,19.1-20.2c2.7-0.4,7.4,1.7,8.7,4.1c0.3,0.5,0.3,1.4,0.1,2c-0.3,0.8-0.8,1.5-1.4,2.2c-1.4,1.6-2.2,1.5-3.9,0.3
		c-1.3-1-2.7-2.1-4.2-2.8c-4.2-2-7.8-0.5-9.3,3.9c-0.5,1.5-0.9,3.1-1.2,4.6c-0.7,4.3-0.8,8.6-0.5,13.2c4.1,0,8.2,0,12.1,0
		c0.7,2.8,0.1,3.7-2.4,3.7c-2.4,0-4.8,0-7.2,0c-0.8,0-1.6,0.1-2.5,0.1c-0.1,0.9-0.1,1.6-0.1,2.3c0,9.7,0,19.3,0,29
		c0,0.5,0,1,0.1,1.4c0.3,2.4,1.1,3.3,3.6,3.9c0.9,0.2,1.7,0.3,2.6,0.4c0.8,0.1,1.6,0.2,2.6,0.3c0,0.7,0.1,1.4,0.1,2.1
		C896.7,267.7,889.1,267.7,881.4,267.7z"/>
	<path d="M687.9,132c-0.7,10.2,4.7,18.2,13.4,19.8c3.2,0.6,6.2,0.2,9-1.5c1.4-0.8,2.6-1.8,4-2.8c0.4,0.3,0.8,0.6,1.4,1.2
		c-2.3,3.1-4.9,5.7-8.2,7.6c-8.3,4.9-20.7,0.7-25.1-9.1c-4.6-10.4-1.1-24.2,8.1-30.8c4.5-3.2,9.5-4.6,15-3.1
		c6,1.6,10.5,7.4,10.5,13.4c0,3-0.4,3.5-3.3,3.8c-5.5,0.4-11,0.8-16.5,1.1C693.4,131.7,690.7,131.8,687.9,132z M688.6,128.2
		c0.4,0,0.7,0.1,1.1,0.1c2.8-0.1,5.6-0.1,8.4-0.2c2.3,0,4.6,0,7-0.1c1.8,0,2.3-0.4,2.4-2.2c0.1-1.1-0.1-2.2-0.3-3.3
		c-1.2-4.7-5.7-7.4-10.1-6.2C692.4,117.6,688.4,123.1,688.6,128.2z"/>
	<path d="M685.4,242.5c-0.9,8.9,3.8,16.9,10.9,19.2c4.6,1.5,9,1.1,13-1.9c0.8-0.6,1.6-1.2,2.7-2c0.5,0.4,0.9,0.8,1.3,1.1
		c-3.4,4.9-7.4,8.5-12.9,9.6c-5.9,1.2-11.4-0.5-16-4.6c-3.4-3.1-5.5-7.1-6.2-11.6c-1.4-9.8,1.1-18.3,8.9-24.8c4.3-3.6,9.4-5.1,15-4
		c6.4,1.3,11.4,7.6,11.4,14c0,2.5-0.5,3.1-3,3.3c-7.6,0.5-15.1,1-22.7,1.5C686.9,242.4,686.2,242.5,685.4,242.5z M685.8,239
		c5.4-0.1,10.4-0.2,15.4-0.4c3.7-0.1,4.1-0.5,3.6-4.2c-0.7-5.8-6.9-10.1-12.9-6.3C688.2,230.5,686.4,234.2,685.8,239z"/>
	<path d="M732.6,196.9c0,0.9,0.1,1.5,0.1,2.1c0,19.9,0,39.8,0,59.7c0,5.2,0.7,6,6,6.6c0.3,0,0.6,0.1,1.1,0.1
		c0.1,0.7,0.1,1.3,0.2,2.1c-7.4,0-14.7,0-22.1,0c0-0.7,0-1.4,0-2c1.4-0.2,2.6-0.5,3.9-0.7c1.9-0.3,2.9-1.6,3.1-3.4
		c0.1-0.7,0.1-1.4,0.1-2.2c0-17.1,0-34.2,0-51.3c0-4.5-0.7-5.3-5.2-5.6c-0.5,0-1.1-0.1-1.7-0.1c-0.1-0.4-0.2-0.7-0.2-1
		s0.1-0.6,0.2-0.9C722.9,199.2,727.6,198.1,732.6,196.9z"/>
	<path d="M986.4,144c1-0.3,1.5-0.5,2.1-0.7c0.2,0.3,0.4,0.4,0.5,0.6c1,2.8,2.3,5.5,4.4,7.6c1.2,1.2,2.7,2.4,4.2,3.1
		c3.2,1.5,6.5,0.8,8.6-1.5c2-2.2,2.4-6.3,0.8-9c-0.7-1.2-1.7-2.3-2.8-3.2c-1.2-1-2.7-1.6-4.1-2.4c-2.2-1.2-4.5-2.4-6.7-3.7
		c-7.8-5.1-6.1-14.7-0.2-19.1c4-3,8.7-3.7,13.5-2.8c5.8,1.1,4.8,0.9,6,5.7c0.4,1.7,0.7,3.4,1,5.3c-0.9,0.2-1.6,0.3-2.3,0.5
		c-0.9-1.6-1.8-3-2.7-4.4c-1.3-1.9-2.9-3.4-5.2-4c-3.1-0.9-6.2,0.1-7.8,2.7c-1.7,2.7-1.3,6,1,8.4c1.8,1.9,4.1,3,6.4,4.1
		c2.4,1.1,4.8,2.3,6.9,3.7c7.9,5.2,6.9,16.7-1.2,21.1c-6.7,3.7-13.3,3.3-19.9-0.3c-0.9-0.5-1.4-1.2-1.5-2.3
		C987.1,150.3,986.8,147.3,986.4,144z"/>
	<path d="M632.4,234.3c-0.9,0.3-1.6,0.5-2.3,0.7c-0.8-1.4-1.6-2.7-2.4-4c-1.1-1.8-2.6-3.3-4.5-4.2c-3.6-1.7-8.9-0.6-9.8,5.1
		c-0.4,2.4,0.5,4.5,2.4,6c2,1.5,4.2,2.6,6.3,3.8c2.2,1.3,4.6,2.3,6.7,3.7c7.8,5.3,6.9,16.6-1.3,21.1c-6.6,3.6-13.2,3.2-19.7-0.3
		c-1-0.5-1.6-1.3-1.7-2.4c-0.3-3-0.6-6-0.9-9.2c0.9-0.3,1.5-0.5,2.2-0.7c0.3,0.8,0.5,1.5,0.9,2.1c1.2,2.1,2.3,4.2,3.7,6.1
		c0.8,1.1,1.9,1.9,3.1,2.6c3.6,2.1,7.8,1.5,10-1.3c2.3-2.9,2.1-7.8-0.8-10.6c-1.5-1.4-3.4-2.4-5.1-3.4c-1.9-1.1-4-2-5.9-3.1
		c-4.6-2.7-7.2-6.6-6.2-12.1c0.9-5.2,5.1-9.3,10.6-10.5c3.5-0.8,7-0.5,10.4,0.5c1.5,0.4,2.4,1.2,2.7,2.7
		C631.3,229.2,631.8,231.6,632.4,234.3z"/>
	<path d="M641.1,254.5c1-0.3,1.6-0.4,2.3-0.6c0.3,0.8,0.6,1.6,0.9,2.3c1,2.5,2.3,4.8,4.3,6.6c1.2,1.1,2.5,2,4,2.6
		c2.8,1.1,5.5,0.9,7.8-1.3c2.3-2.1,2.6-4.9,2-7.8c-0.5-2.1-1.8-3.8-3.6-4.9c-1.5-1-3.1-1.7-4.6-2.5c-2.2-1.2-4.4-2.3-6.4-3.7
		c-7-4.7-5.6-13.3-1.4-17.5c3.6-3.5,7.9-4.7,12.7-4.4c6.7,0.4,7.2,0.9,8.5,7.5c0.2,1.2,0.4,2.3,0.6,3.6c-0.8,0.2-1.5,0.4-2.2,0.6
		c-0.8-1.4-1.6-2.7-2.4-4c-1.1-1.8-2.6-3.3-4.5-4.2c-3.7-1.7-8.9-0.6-9.8,5c-0.4,2.5,0.5,4.7,2.5,6.1c1.9,1.4,4.1,2.5,6.1,3.7
		c2.1,1.2,4.3,2.1,6.3,3.4c8.6,5.5,7.3,17.6-1.7,21.9c-6.3,3-12.5,2.6-18.7-0.6c-1.1-0.6-1.8-1.3-1.9-2.5
		C641.7,260.8,641.4,257.8,641.1,254.5z"/>
	<path d="M722,144c0.9-0.3,1.5-0.5,2.2-0.7c0.2,0.3,0.4,0.6,0.5,0.8c1,2.7,2.2,5.3,4.3,7.4c1.1,1.1,2.4,2.2,3.8,2.9
		c3.5,1.8,7.3,1,9.3-1.7c2.1-2.7,2-7.2-0.3-10c-0.9-1-2-1.9-3.1-2.6c-1.1-0.7-2.4-1.2-3.6-1.9c-2.3-1.3-4.6-2.5-6.8-4
		c-5.8-4.1-5.4-11.6-2-15.9c2.5-3.3,6-5,10-5.5c3.1-0.4,6.1-0.1,9,0.8c1.3,0.4,2.1,1,2.3,2.4c0.5,2.6,1.1,5.1,1.7,7.8
		c-1,0.2-1.7,0.3-2.3,0.5c-1-1.6-1.8-3-2.7-4.4c-1.2-1.8-2.8-3.2-5-4c-3.1-1-6.4,0-8,2.6c-1.7,2.8-1.3,6.2,1.1,8.5
		c1.9,1.9,4.2,3.1,6.7,4.1c2.8,1.1,5.4,2.5,7.6,4.4c5.4,4.6,5.8,12.6,0.9,17.7c-4.4,4.6-10.1,5.7-16.1,4.7c-2.2-0.4-4.4-1.4-6.5-2.3
		c-1.2-0.5-1.9-1.4-2-2.7C722.7,150,722.3,147.1,722,144z"/>
	<path d="M1152.5,117.5c-2.6,0-5,0-7.6,0c1.3-3.9,4.2-4,7.5-3.7c0-1.6,0.2-3,0.1-4.3c-0.1-1.4,0.4-2.4,1.4-3.4
		c1.4-1.3,2.7-2.8,4.1-4.1c0.5-0.5,1.2-0.7,2.3-1.4c0,4.7,0,8.8,0,13.1c4,0,7.7,0,11.4,0c1.1,2.6,0.4,3.8-1.9,3.8c-3,0-6,0-9.2,0
		c-0.1,0.9-0.2,1.6-0.2,2.3c0,8,0,16,0,24c0,1.7,0.2,3.4,0.6,5c0.8,3.1,3.3,4.8,6.5,4.3c1.7-0.3,3.4-0.9,5.2-1.4
		c0.2,0.5,0.5,1,0.9,1.9c-3.3,1.6-6.3,3.3-9.6,4.5c-4.1,1.4-8.6-1.1-10.4-5.2c-1-2.4-1.1-5-1.1-7.5c0-8.3,0-16.6,0-25
		C1152.5,119.5,1152.5,118.6,1152.5,117.5z"/>
	<path d="M1034.7,113.8c4.2,0,7.9,0,11.6,0c0.9,2.7,0.3,3.7-2.1,3.8c-3,0-6,0-9.2,0c-0.1,0.9-0.2,1.6-0.2,2.3c0,7.6-0.1,15.2,0,22.8
		c0,2,0.2,4,0.7,5.9c0.9,3.5,3.4,5.2,7,4.5c1.5-0.3,3-0.9,4.7-1.4c0.3,0.5,0.6,1,0.9,1.6c-0.2,0.2-0.3,0.5-0.5,0.6
		c-2.5,1.3-5,2.6-7.5,3.8c-4.8,2.2-10.3,0-11.9-5c-0.7-2.2-1-4.5-1-6.8c-0.1-8.4,0-16.8,0-25.2c0-0.9,0-1.7,0-2.7
		c-2.5-0.8-5,0.2-7.5-0.7c1.4-3.6,4.2-3.7,7.5-3.5c0-1.6,0.1-3,0-4.4c-0.1-1.2,0.3-2.1,1.2-3c1.5-1.4,2.9-3,4.4-4.4
		c0.5-0.4,1.1-0.7,2.1-1.4C1034.7,105.2,1034.7,109.3,1034.7,113.8z"/>
	<path d="M981.3,151.6c0.3,0.6,0.6,1.1,1,2c-3.2,1.6-6.3,3.3-9.6,4.5c-4.1,1.4-8.7-1-10.4-5.2c-0.9-2.3-1.1-4.6-1.1-7.1
		c0-8.5,0-16.9,0-25.4c0-0.9,0-1.7,0-2.6c-2.6-0.7-5.1,0.2-7.6-0.6c1.4-3.6,4.3-3.7,7.6-3.4c0-1.6,0.1-3,0-4.5
		c-0.1-1.2,0.3-2.1,1.2-3c1.5-1.4,2.9-3,4.4-4.4c0.5-0.4,1.1-0.7,2.1-1.3c0,4.6,0,8.7,0,13.1c4.1,0,7.9,0,11.6,0
		c0.9,2.9,0.3,3.8-2.4,3.8c-2.2,0-4.5,0-6.7,0c-0.7,0-1.4,0.1-2.2,0.1c-0.1,0.7-0.1,1.4-0.1,2c0,8,0,16,0,24c0,1.4,0.2,2.9,0.4,4.3
		c0.8,4,3.5,5.9,7.5,5.1C978.3,152.7,979.6,152.1,981.3,151.6z"/>
	<path d="M844.1,228.7c-0.2-0.9-0.3-1.6,0.7-1.8c4.5-1.2,8.9-2.3,13.6-3.6c0,3.2,0,6.2,0,9.9c0.8-1,1.2-1.5,1.6-2
		c1.8-2.5,3.7-4.8,6.3-6.5c1.9-1.3,4-2,6.3-1c1.9,0.8,3.3,2.2,3.3,4.3c0,2-1,3.7-2.9,4.7c-1.1,0.6-2.1,0.7-3.1-0.2
		c-0.4-0.3-0.7-0.6-1.1-0.9c-1.9-1.2-4-1.3-5.8,0.1c-2.8,2.3-4.8,4.9-4.7,8.9c0.2,6.2,0,12.5,0,18.7c0,0.6,0,1.1,0,1.7
		c0.2,2.5,1,3.4,3.4,4c0.8,0.2,1.6,0.3,2.4,0.4c0.7,0.1,1.4,0.1,2.3,0.2c0,0.7,0.1,1.4,0.1,2.1c-7.6,0-15,0-22.6,0
		c0-0.7-0.1-1.3-0.1-2c1.4-0.3,2.5-0.5,3.7-0.7c1.8-0.3,2.8-1.5,3-3.3c0.1-0.7,0.1-1.4,0.1-2.2c0-8.3,0-16.6,0-24.9
		c0-0.2,0-0.5,0-0.7c-0.1-3.3-0.7-4.1-3.8-4.7C846,229,845.1,228.8,844.1,228.7z"/>
	<path d="M583.7,208.2c2.5,0.1,4.4,2.2,4.2,4.8c-0.1,2.5-2,4.3-4.5,4.2s-4.3-2-4.3-4.5C579.1,210.1,581.1,208.2,583.7,208.2z"/>
	<path d="M570.5,212.9c0,2.5-1.9,4.4-4.4,4.4c-2.6,0-4.5-2-4.4-4.6c0.1-2.5,1.9-4.4,4.4-4.4C568.6,208.2,570.5,210.2,570.5,212.9z"
		/>
	<path class="st0" d="M167.6,152.4c0.9,0.6,1.6,1.1,2.3,1.6c5.7,4,8.3,9.3,7.6,16.5c-0.9,9.1-4.1,17.4-8.5,25.3
		c-6.1,11.2-13.9,21.3-22.2,31c-10,11.8-20.8,22.8-31.5,34c-10.1,10.5-20.3,20.8-29.7,32c-1.7,2.1-3.4,4.2-5.3,6.6
		c1,0.4,1.7,0.8,2.5,1.1c6.8,2.4,13.6,4.7,20.4,7.1c8.1,2.8,16.2,5.4,23.8,9.5c3.3,1.7,6.5,3.8,9.5,6c6.3,4.8,8.7,11.1,7.5,19
		c-1.5,9.9-5,19.1-9.2,28.2c-1.2,2.6-2.5,5.2-3.9,7.8c-0.7,0.1-1.3,0.2-1.9,0.2c-9.8,0-19.7,0-29.5,0c-1.1,0-2-0.1-2.7-1
		c-7-8.1-15.4-14.7-24.2-20.6c-7.2-4.8-14.4-9.5-21.8-14c-3.1-1.8-4-3.9-4-7.5c0.2-18,0.1-36,0.1-54c0-1.7,0.5-2.8,1.8-3.8
		c9-6.5,18-13.1,26.9-19.6c9.9-7.3,20-14.4,29.8-21.8c3.6-2.7,6.8-6.1,10-9.3c1.6-1.6,2.9-3.6,4-5.7c2-3.9,1.1-7.6-2.5-10.1
		c-1.9-1.3-4-2.3-6.2-3c-5.4-1.9-11-2.6-16.7-3.3c-8.4-1.1-16.8-2.2-25.2-3.4c-2.1-0.3-4.2-1.1-6.2-1.9c-1-0.4-2-1-2.8-1.7
		c-2-1.7-2.4-4.1-0.6-6.1c1.6-1.8,3.4-3.4,5.4-4.7c5.9-4.1,12.4-7.3,18.9-10.4c6.4-3.1,12.9-6,19.3-9c0.7-0.3,1.4-0.7,2.1-1.2
		c-19.2-3.1-38.5-4.3-57.9-6.1c0-6.3,0-12.5,0-19c1.9,0,3.7,0,5.5,0c10.6,0.1,21.3,0.1,31.9,0.4c12.9,0.4,25.7,0.7,38.6,1.6
		c7.9,0.5,15.7,2,23.5,3c0.8,0.1,1.8,0.1,2.5-0.3c5.3-2.7,10.4-5.6,15.1-9.3c1.4-1.1,2.7-2.3,3.8-3.7c2.6-3.2,2.1-5.6-1.5-7.3
		c-2.6-1.2-5.4-2.2-8.2-2.6c-6-1-12-2-18-2.4c-14.2-0.9-28.4-1.5-42.6-2.2c-11.7-0.5-23.3-0.9-35-1.5c-4.4-0.2-8.8-0.6-13.2-1
		c-0.8-0.1-1.5-0.3-2.4-0.4c0-5.2,0-10.3,0-15.7c1-0.3,2-0.7,3.1-1c13.8-3.6,27.5-7.2,41.3-10.6c26.9-6.6,54-12.8,80.7-20.2
		c12.5-3.5,24.9-7,36.9-12.1c3.2-1.3,6.2-3,9.2-4.7c1.5-0.9,2.8-2.1,4-3.4c0.7-0.8,1.4-1.1,2.4-1.1c2.9,0,5.8,0,8.6,0
		c15.6,0,31.2,0,46.8,0c0.8,0,1.7,0,2.5,0c0,0.2,0.1,0.3,0.1,0.5c-0.9,0.5-1.9,1-2.8,1.4c-7.7,3.5-15.8,6.2-23.9,8.7
		c-20.3,6.2-41,11.3-61.6,16.4c-24,5.9-48,11.7-71.9,17.8c-7.1,1.8-14,4.4-21,6.7c-1.8,0.6-3.5,1.6-5.1,2.7c-2,1.4-2,2.9,0.2,4
		c2.1,1,4.4,1.9,6.8,2.3c4.8,0.8,9.6,1.5,14.5,1.9c9.4,0.7,18.8,1.1,28.3,1.7c10.9,0.6,21.7,1.1,32.6,1.9c8.8,0.6,17.5,1.4,26.1,3.8
		c2.2,0.6,4.4,1.5,6.4,2.6c3.2,1.8,3.8,4.5,1.4,7.4c-1.8,2.2-4,4.1-6.3,5.8c-6,4.4-12.6,7.9-19.3,11.2c-5.7,2.8-11.4,5.5-17.1,8.2
		C169.2,151.6,168.5,151.9,167.6,152.4z M71.7,313.3c-1.2,2.5-2,4.9-2.6,7.4c-1,4.2-0.2,8,2.6,11.2c2,2.3,4.1,4.5,6.5,6.4
		c4.3,3.4,8.7,6.5,13.1,9.7c7.2,5.2,14.3,10.5,20.6,16.8c0.3,0.3,0.6,0.5,0.9,0.7c0.2-0.3,0.4-0.5,0.5-0.7c2-5.4,3.5-10.9,4.3-16.7
		c0.9-6.6-0.4-12.4-5.7-16.9c-2.9-2.5-6-4.6-9.3-6.3C92.9,319.8,82.4,316.6,71.7,313.3z M138.2,194.7c1.3-4.2,2.1-8.3,2.2-12.5
		c0.1-2.9-1-5.2-3.3-6.8c-2-1.4-4.3-2.4-6.4-3.7c-1.7-1-3.2-0.9-4.9,0.1s-3.6,1.8-5.3,2.8c-4.1,2.5-8.2,4.9-12.2,7.6
		c-1.5,1-2.7,2.4-3.8,3.9c-1.2,1.6-0.9,3.4,0.5,4.8c0.7,0.7,1.7,1.3,2.6,1.6c1.8,0.6,3.7,1.2,5.6,1.3c6,0.4,11.9,0.6,17.9,0.9
		C133.5,194.7,135.8,194.7,138.2,194.7z"/>
	<path class="st0" d="M306.9,120.9c-1.7,0-3.3,0-5,0c-2,0-2.3-0.3-2.3-1.9s0.3-2,2.2-2c2.1,0,4.1,0,6.5,0c0-1.8,0.1-3.5,0-5.1
		c-0.2-1.7-1.7-2.9-3.8-3c-1.4-0.1-2.9,0-4.3,0c-2.3,0-2.4-0.2-2.4-2.5c0-0.7,0-1.4,0-2.2c0-2.9,0.1-3,2.9-3c1.1,0,2.2,0,3.4-0.1
		c0.1,0,0.3-0.1,0.5-0.3c-0.3-2.2-0.7-4.4-1.1-7.2c1.9,1.4,3.5,2.5,5.1,3.7c1.3-1.7,2.4-3.2,3.7-4.9c1.3,1.7,2.5,3.2,3.9,4.9
		c1.6-1.1,3.1-2.2,5.1-3.6c-0.4,2.8-0.8,5.1-1.2,7.5c0.6,0.4,1.2,0.7,1.7,1c7.4,4.7,9.9,13.8,5.9,21.7c-1.2,2.3-2.4,4.7-3.8,7
		c-0.6,1.1-0.6,2-0.2,3.1c3.9,9.4,7.8,18.7,11.7,28.1c0.3,0.7,0.7,1.5,1.2,2c1.4,1.6,3.6,1.7,5.1,0.4s1.7-3.6,0.4-5.2
		c-0.3-0.4-0.7-0.7-1-1c-7.4-7.3-8.2-18.1-2.1-26.4c0.3-0.4,0.6-0.8,1-1.3c-5.3-6.4-6.4-13.6-3.5-21.5c-0.4-0.4-0.8-0.8-1.1-1.2
		c-1.4-1.6-1.6-3.4-0.9-5.4c0.1-0.4,0.3-0.7,0.5-1.1c1.3-2.6,2-5.2,0.9-8.3c0.6,0.5,1.3,1,1.8,1.5c4.1,4.7,5.1,10,2.6,15.8
		c-1.9,4.4-2,8.8,0,13.2c0.7,1.5,1.5,2.9,2.9,4.2c2.7-2.9,4-6.2,4.3-10c0.2-2.8-0.6-5.4-1.6-7.9c-2.4-5.8-0.8-12.3,3.8-16.4
		c0.2-0.2,0.5-0.4,1-0.7c-0.1,0.5,0,0.8-0.1,1.1c-0.9,2.1-0.6,4.2,0.3,6.3c0.2,0.4,0.4,0.9,0.6,1.3c1.3,2.6,1.2,4.9-1.1,6.9
		c-0.2,0.2-0.3,0.4-0.5,0.7c2.9,7.7,1.8,14.9-3.4,21.3c6.7,9.1,6.7,18.2-0.3,27.2c0.2,0.6,0.4,1.2,0.6,1.9c1.4,4.9-2.1,9.7-7.3,9.8
		c-4.5,0.1-4.9,0.5-4.9,5c0,0.3,0,0.6,0.1,1.2c2.1,0.9,4.3,1.9,6.4,2.9c1.2,0.6,2.5,1.1,3.7,1.7c2.4,1.2,3.4,3.3,2.5,5.8
		c-1.7,5.1-3.6,10.1-5.4,15.1c-0.4,1.1-1.1,1.9-2.4,1.9c-4.7,0-9.4,0-14.2-0.1c-0.1,0-0.3-0.1-0.7-0.3c0-1.1-0.1-2.2,0-3.4
		c0.2-2.3,1.5-3.6,3.8-3.8c1.1-0.1,2.2,0,3.4-0.1c3.7-0.3,6.6-3.6,6.6-7.3c0-1.9-0.5-2.5-2.4-2.5c-3.7-0.1-7.4,0-11,0
		c-1.2,0-2.4-0.2-3.5-0.6c-2.5-1.1-3.8-3.1-3.8-5.9c0-2.7,0-5.4,0-8.2c0-0.4-0.1-0.8-0.1-1.2c-4.3-0.4-8.5,2.4-10.1,7
		c-1.5,4.1-2.7,8.4-4.1,12.5c-1.3,4.2-1.3,4.2-5.7,4.2c-3.4,0-6.7,0.1-10.1,0c-1.3,0-2,0.4-2.8,1.4c-2.9,4.2-6.9,7-11.6,8.9
		c-1.6,0.6-3,0.6-4.6,0c-9.8-3.8-15.7-12.3-16-23.1c0-0.3,0-0.6,0-1c0-4.1,0-4.1-3.1-6.9c2-4,4.1-8.1,6.4-12.8
		c2.3,4.5,4.3,8.6,6.5,13.1c-0.4,0.2-0.8,0.4-1.1,0.6c-2,1-2.2,2.7-2.2,4.8c-0.1,5.5,1.1,10.5,4.8,14.7c1,1.2,2.3,2.2,3.8,3.6
		c0-22.3,0-44.1,0-66.1c-5.8,0-11.5,0-17.4,0c0-1.4,0-2.5,0-4c5.8,0,11.5,0,17.4,0c0-4.2,0-8.2,0-12.3c-0.5-0.3-1.1-0.6-1.7-1
		c-3.8-2.3-5.7-6.4-4.9-10.9c0.7-3.9,4.1-7.3,8-8c4.5-0.8,8.8,1,10.8,4.9c0.8,1.5,1.9,2.4,3.4,3.1c2.1,1,2.4,2,1,4
		c-0.8,1.2-1.7,2.3-2.5,3.5s-0.7,1.7,0.4,2.7c0.4,0.4,0.9,0.7,1.4,1c5.3,3.8,10.7,7.6,16,11.5c0.5,0.4,1.1,0.7,1.7,1.1
		c1.9-1.6,3.8-3.1,5.7-4.7C307.1,121.3,307,121.1,306.9,120.9z M274.6,196.2c0.5-0.3,0.9-0.5,1.4-0.8c3.1-2.5,5.5-5.7,6.4-9.6
		c0.6-2.8,0.6-5.7,0.9-8.5c0.1-1.2-0.2-2.1-1.3-2.8c-0.7-0.5-1.3-1.1-2-1.7c2.1-4.2,4.2-8.3,6.4-12.8c2.3,4.5,4.3,8.7,6.4,12.8
		c-0.9,0.7-1.6,1.2-2.2,1.8c-0.4,0.4-0.9,1-0.9,1.6c-0.1,3,0,6,0,9c4.2,0.3,7.2-2.3,7.5-6.5c0.1-2.1,0-4.2,0.1-6.2
		c0-9.3,6.5-17.1,15.6-19c0.8-0.2,1.6-0.4,2.7-0.6c-4.3-4-8.3-7.8-12.3-11.6c-0.9,0.4-1.7,0.7-2.5,1.1c-5.8,2.6-11.5,5.2-17.2,7.8
		c-2.6,1.2-5.3,2.3-8.2,2c-0.1,0-0.3,0.1-0.6,0.3C274.6,166.8,274.6,181.4,274.6,196.2z M279.6,144c5-3.9,9.6-7.6,14.1-11.5
		c-0.9-1.4-1.8-2.1-3.4-2.1c-4.6,0.1-9.2,0-13.9,0c-0.5,0-1.1,0.1-1.7,0.2c0,2,0,3.8,0,5.7c3.8-1.2,4.3-0.8,4.3,3c0,0.8,0,1.6,0,2.4
		C279.2,142.3,279.3,142.8,279.6,144z M343.2,154.6c5.8-4.6,6-16.6-0.1-21.2C337,139.6,338.1,150,343.2,154.6z M276.3,104.5
		c0-2.8-2.2-5.1-4.9-5.1c-2.7,0-5.1,2.4-5.1,5c0,2.7,2.3,5,5,5C274.1,109.4,276.2,107.3,276.3,104.5z M287,126.4
		c-2.1-2.8-10.8-10.8-12.3-11.3c0,3.7,0,7.5,0,11.3C278.8,126.4,282.8,126.4,287,126.4z M314.4,104.5c0-1.1-1-2.1-2.2-2
		c-1.1,0.1-2,0.9-2,2s0.9,2,2,2C313.4,106.6,314.4,105.7,314.4,104.5z"/>
	<path class="st0" d="M46.9,83.4c0-4.1,0-8,0-12c0.9-0.3,1.8-0.7,2.7-1c22.3-7.8,44.6-15.7,66.9-23.5c0.9-0.3,1.9-0.5,2.8-0.5
		c8.1,0,16.2,0,24.2,0c0.3,0,0.6,0.1,1,0.1C142,48.4,52.9,82.2,46.9,83.4z"/>
	<path class="st0" d="M305.4,114.7c-1.6-0.2-3-0.4-4.4-0.4c-1.9-0.1-3.8,0-5.8-0.1c-2.1-0.1-4-1.7-4.5-3.8c-0.5-2.2-0.1-4.1,2-5.7
		c0.1,0.8,0.2,1.4,0.2,2c0.1,3.4,1.2,4.5,4.7,4.5c1.6,0,3.2-0.1,4.8,0C304.4,111.4,305.3,112.5,305.4,114.7z"/>
	<path class="st0" d="M497.6,233c0-7.6,0-15.2,0-22.8c0-4,0.3-4.3,4.4-4.4c5.1-0.1,10.2-0.2,15.3,1c8.6,2,14.4,7.1,16.7,15.7
		c2.3,8.4,2.5,16.8-0.5,25c-3.3,9.2-10.1,14.6-19.6,16.4c-3,0.5-6,0.5-9.1,0.6c-1.2,0-2.4-0.3-3.5-0.6c-1.9-0.6-3.1-1.9-3.3-4
		c-0.2-1.5-0.3-3-0.3-4.5C497.6,247.8,497.6,240.4,497.6,233z"/>
	<path class="st0" d="M776.1,245.4c0,4.2-0.1,8.3,0,12.5c0.1,1.7-0.6,2.7-2.1,3.3c-3.2,1.5-6.5,2.7-10.1,1.9
		c-5.6-1.2-8.8-5.1-10.5-10.2c-1.8-5.5-1.7-11,0.1-16.5c2.6-7.9,10.8-11.6,18.6-8.5c0.8,0.3,1.6,0.8,2.3,1.3
		c1.2,0.8,1.7,1.9,1.7,3.5C776.1,236.9,776.1,241.1,776.1,245.4z"/>
	<path class="st0" d="M661.5,134.8c0,4.2,0,8.5,0,12.7c0,0.9,0.1,1.8-0.8,2.3c-5.1,3.3-12.8,4.9-18.5-1.5c-1.9-2.2-3.2-4.8-3.9-7.6
		c-1.1-4.8-1.1-9.7,0.5-14.4c2.8-8.6,10.4-11.7,18.5-9c0.9,0.3,1.7,0.9,2.5,1.4c1.2,0.9,1.8,2,1.8,3.7
		C661.4,126.5,661.5,130.6,661.5,134.8z"/>
	<path class="st0" d="M1127.3,134.8c0,4.2-0.1,8.5,0,12.7c0,1.5-0.5,2.3-1.8,3c-8,4.5-16,2.1-20-5.9c-0.8-1.6-1.3-3.4-1.7-5.2
		c-0.8-4.1-0.6-8.1,0.5-12.1c2.2-8.5,10-12.9,18.3-10.1c0.9,0.3,1.8,0.8,2.6,1.3c1.4,0.9,2.2,2.1,2.1,4
		C1127.2,126.4,1127.3,130.6,1127.3,134.8z"/>
	<path class="st0" d="M941.6,136c0.2,4.6-0.8,8.9-3.7,12.6c-5,6.4-12.8,6.2-17.8,3c-1.5-0.9-2.2-2.1-2.1-3.9
		c0.1-7.9,0.1-15.8,0-23.7c0-1.7,0.6-2.7,2-3.4c3.1-1.6,6.2-2.9,9.8-2.3c5,0.8,8.4,3.7,10.3,8.3C941.2,129.6,941.7,132.7,941.6,136z
		"/>
	<path class="st0" d="M829.5,248.1c-0.4,2.9-0.8,5.8-1.3,8.7c-0.1,0.7-0.4,1.4-0.7,2.1c-4,9.7-13.8,8.3-18.3,3.2
		c-1.9-2.2-3.2-4.8-4.1-7.5c-1.7-5.6-2.1-11.3-1-17.1c0.5-2.6,1.5-5,3.2-7.2c3.9-5,10.7-5.6,15.4-1.3c2.4,2.2,3.9,4.9,4.8,7.9
		c0.6,1.8,1,3.7,1.3,5.6c0.3,1.8,0.3,3.7,0.4,5.5C829.4,248,829.5,248,829.5,248.1z"/>
	<path class="st0" d="M834,133c0,5.3,0,10.1,0,14.8c0,0.6-0.4,1.5-0.9,1.7c-2,1.1-4.1,2.2-6.2,3c-1.9,0.8-3.8,0.1-5.4-1.1
		c-3.3-2.5-3.9-8.3-1.1-11.4c0.4-0.4,0.8-0.8,1.2-1.1C825.3,136.5,829.5,135,834,133z"/>
	<path class="st0" d="M1076.2,133.5c0,1.3,0,2.5,0,3.8c0,3.4-0.1,6.7,0,10.1c0,1.3-0.4,2.2-1.5,2.7c-1.9,0.9-3.7,1.9-5.6,2.6
		c-2.3,0.9-4.3,0-6.1-1.6c-2.5-2.2-3.2-8.6,0-11.3c0.5-0.4,0.9-0.9,1.5-1.2c3.7-1.9,7.4-3.7,11.1-5.5
		C1075.8,133.2,1076,133.3,1076.2,133.5z"/>
	<path class="st0" d="M557.3,132.9c0,2.5,0,4.4,0,6.3c0,2.8,0,5.6,0,8.4c0,1-0.2,1.7-1.1,2.2c-1.9,1-3.8,2-5.8,2.8
		c-2.4,1-4.5,0.1-6.4-1.6c-2.4-2.2-3.2-8.4-0.1-11.1c0.4-0.4,0.8-0.8,1.3-1.1C548.9,136.4,552.9,134.9,557.3,132.9z"/>
	<path class="st0" d="M688.6,128.2c-0.2-5.1,3.8-10.6,8.5-11.9c4.3-1.2,8.9,1.6,10.1,6.2c0.3,1.1,0.4,2.2,0.3,3.3
		c-0.1,1.8-0.6,2.2-2.4,2.2c-2.3,0.1-4.6,0-7,0.1c-2.8,0-5.6,0.1-8.4,0.2C689.4,128.3,689,128.2,688.6,128.2z"/>
	<path class="st0" d="M685.8,239c0.6-4.8,2.4-8.5,6.2-11c5.9-3.8,12.2,0.5,12.9,6.3c0.5,3.7,0.1,4.1-3.6,4.2
		C696.2,238.7,691.2,238.8,685.8,239z"/>
	<path d="M71.7,313.3c10.7,3.4,21.2,6.5,31,11.6c3.3,1.7,6.5,3.8,9.3,6.3c5.2,4.5,6.6,10.3,5.7,16.9c-0.8,5.7-2.3,11.3-4.3,16.7
		c-0.1,0.2-0.3,0.4-0.5,0.7c-0.3-0.3-0.7-0.5-0.9-0.7c-6.3-6.3-13.4-11.6-20.6-16.8c-4.4-3.2-8.9-6.3-13.1-9.7
		c-2.4-1.9-4.5-4.1-6.5-6.4c-2.8-3.2-3.6-7-2.6-11.2C69.7,318.2,70.5,315.8,71.7,313.3z"/>
	<path d="M138.2,194.7c-2.4,0-4.7,0.1-7,0c-6-0.2-12-0.5-17.9-0.9c-1.9-0.1-3.7-0.7-5.6-1.3c-0.9-0.3-1.9-0.9-2.6-1.6
		c-1.5-1.4-1.7-3.1-0.5-4.8c1.1-1.5,2.3-2.9,3.8-3.9c4-2.7,8.1-5.1,12.2-7.6c1.7-1,3.6-1.8,5.3-2.8s3.2-1.1,4.9-0.1
		c2.1,1.2,4.4,2.3,6.4,3.7c2.3,1.6,3.3,3.9,3.3,6.8C140.3,186.4,139.5,190.5,138.2,194.7z"/>
	<path d="M274.6,196.2c0-14.7,0-29.3,0-43.8c0.3-0.2,0.5-0.3,0.6-0.3c3,0.3,5.6-0.7,8.2-2c5.7-2.7,11.5-5.2,17.2-7.8
		c0.8-0.4,1.6-0.7,2.5-1.1c4,3.8,8,7.6,12.3,11.6c-1.1,0.3-1.9,0.5-2.7,0.6c-9.1,1.9-15.6,9.7-15.6,19c0,2.1,0.1,4.2-0.1,6.2
		c-0.3,4.2-3.3,6.8-7.5,6.5c0-3,0-6,0-9c0-0.5,0.5-1.1,0.9-1.6c0.6-0.6,1.3-1.1,2.2-1.8c-2.1-4.2-4.1-8.3-6.4-12.8
		c-2.2,4.5-4.3,8.5-6.4,12.8c0.7,0.6,1.3,1.2,2,1.7c1.1,0.7,1.4,1.6,1.3,2.8c-0.3,2.8-0.3,5.8-0.9,8.5c-0.9,3.9-3.2,7.1-6.4,9.6
		C275.6,195.7,275.1,195.9,274.6,196.2z"/>
	<path d="M279.6,144c-0.3-1.2-0.4-1.7-0.5-2.2c-0.1-0.8,0-1.6,0-2.4c0-3.8-0.5-4.2-4.3-3c0-1.9,0-3.7,0-5.7c0.6-0.1,1.1-0.2,1.7-0.2
		c4.6,0,9.2,0.1,13.9,0c1.6,0,2.5,0.7,3.4,2.1C289.2,136.4,284.6,140,279.6,144z"/>
	<path d="M343.2,154.6c-5.1-4.6-6.2-15-0.1-21.2C349.2,138,349,150,343.2,154.6z"/>
	<path d="M276.3,104.5c0,2.8-2.2,5-5,4.9c-2.8,0-5.1-2.4-5-5c0-2.7,2.5-5,5.1-5S276.3,101.7,276.3,104.5z"/>
	<path d="M287,126.4c-4.3,0-8.2,0-12.3,0c0-3.9,0-7.6,0-11.3C276.2,115.6,284.9,123.6,287,126.4z"/>
	<path d="M314.4,104.5c0,1.1-1,2.1-2.2,2c-1.1-0.1-2-0.9-2-2s0.8-2,2-2C313.4,102.4,314.4,103.4,314.4,104.5z"/>
</g>
</svg>
