<?xml version="1.0" encoding="utf-8"?>
<!-- Generator: Adobe Illustrator 24.3.0, SVG Export Plug-In . SVG Version: 6.00 Build 0)  -->
<svg version="1.1" id="Layer_1" xmlns="http://www.w3.org/2000/svg" xmlns:xlink="http://www.w3.org/1999/xlink" x="0px" y="0px"
	 viewBox="0 0 85 27" style="enable-background:new 0 0 85 27;" xml:space="preserve">
<style type="text/css">
	.st0{clip-path:url(#SVGID_2_);}
	.st1{clip-path:url(#SVGID_4_);}
</style>
<g>
	<g>
		<g>
			<g>
				<g>
					<defs>
						<rect id="SVGID_1_" x="0" y="-8.5" width="85" height="42.5"/>
					</defs>
					<clipPath id="SVGID_2_">
						<use xlink:href="#SVGID_1_"  style="overflow:visible;"/>
					</clipPath>
					<path class="st0" d="M9.3,5.6c-1.3,0-2,0.7-2,1.7c0,1.9,2.5,1.6,2.5,2.5c0,0.3-0.3,0.6-0.9,0.6c-0.6,0-1.1-0.2-1.4-0.4
						c-0.2,0.2-0.3,0.4-0.3,0.7c0,0.7,0.9,0.8,1.7,0.8c1.3,0,2.1-0.6,2.1-1.8c0-1.9-2.5-1.5-2.5-2.5c0-0.3,0.2-0.6,0.8-0.6
						c0.4,0,0.9,0.2,1.2,0.4c0.2-0.2,0.3-0.4,0.3-0.7C10.8,5.8,10,5.6,9.3,5.6 M13.2,6.1c-0.1,0-0.2,0-0.3,0c-0.5,0-0.8,0.2-0.8,0.8
						v0.2h-0.7V8h0.7v2.1c0,1,0.5,1.4,1.4,1.4c0.8,0,1.3-0.3,1.3-0.7c0-0.2-0.1-0.4-0.3-0.6c-0.2,0.1-0.5,0.2-0.8,0.2
						c-0.4,0-0.5-0.1-0.5-0.6v-2h1.4V7.1h-1.4C13.2,7.1,13.2,6.1,13.2,6.1z M17.4,8.7c-1.4,0-2.1,0.5-2.1,1.5c0,0.9,0.5,1.3,1.4,1.3
						c0.7,0,1.1-0.3,1.2-0.7H18c0,0.2,0.1,0.5,0.2,0.6H19V8.6c0-1-0.4-1.6-1.7-1.6c-1,0-1.7,0.3-1.7,0.8c0,0.2,0.1,0.4,0.2,0.6
						C16.1,8.2,16.6,8,17.1,8c0.6,0,0.8,0.3,0.8,0.7v0.2C17.8,8.7,17.6,8.7,17.4,8.7 M17.4,9.5c0.1,0,0.3,0,0.4,0v0.8
						c-0.2,0.2-0.4,0.3-0.8,0.3c-0.4,0-0.6-0.2-0.6-0.5C16.5,9.7,16.8,9.5,17.4,9.5 M22.8,7c-0.2,0-0.5-0.1-0.7-0.1
						c-1.4,0-2.1,0.9-2.1,2.4c0,1.2,0.5,2.1,1.6,2.1c0.6,0,1.1-0.2,1.2-0.8l0,0c0,0.2,0.1,0.4,0.2,0.7h0.9V5.1h-1.1V7z M22.8,8v2.2
						c-0.2,0.1-0.5,0.2-0.8,0.2c-0.6,0-0.8-0.3-0.8-1.1c0-0.9,0.4-1.4,1-1.4C22.4,7.9,22.6,8,22.8,8 M26.4,6.1c-0.1,0-0.2,0-0.3,0
						c-0.5,0-0.8,0.2-0.8,0.8v0.2h-0.7V8h0.7v2.1c0,1,0.5,1.4,1.4,1.4c0.8,0,1.3-0.3,1.3-0.7c0-0.2-0.1-0.4-0.3-0.6
						c-0.2,0.1-0.5,0.2-0.8,0.2c-0.4,0-0.5-0.1-0.5-0.6v-2h1.4V7.1h-1.4V6.1z M31.9,8.1l0.9,3.3h1.4L35.4,7h-1.2l-0.7,3.2l-0.8-3.1
						h-1.4l-0.9,3.2l-0.7-3.2h-1.2l1.2,4.4H31L31.9,8.1z M37,9.5h2.6c0-0.2,0.1-0.4,0.1-0.6c0-1.1-0.6-1.9-1.8-1.9
						c-1.3,0-2.1,1-2.1,2.3c0,1.5,0.8,2.3,2.2,2.3c0.8,0,1.6-0.2,1.6-0.8c0-0.2-0.1-0.4-0.2-0.5c-0.2,0.1-0.7,0.3-1.2,0.3
						C37.5,10.6,37.1,10.2,37,9.5 M37,8.7c0.1-0.6,0.4-0.9,0.9-0.9c0.4,0,0.7,0.3,0.7,0.9H37z M40.7,7.1v4.4h1.1V8.6
						c0.1-0.3,0.4-0.5,0.8-0.5c0.3,0,0.6,0.1,0.7,0.2c0.2-0.2,0.3-0.5,0.3-0.7c0-0.3-0.2-0.6-0.8-0.6c-0.7,0-1,0.4-1,0.9l0,0
						c0-0.3-0.1-0.6-0.2-0.8H40.7z M45.5,5.2h-1.1v6.2h1.1V5.2z M45.5,9.2l1.5,2.3h1.4l-1.6-2.4l1.6-2H47L45.5,9.2z M49.9,9.5h2.6
						c0-0.2,0.1-0.4,0.1-0.6C52.6,7.8,52,7,50.8,7c-1.3,0-2.1,1-2.1,2.3c0,1.5,0.8,2.3,2.2,2.3c0.8,0,1.6-0.2,1.6-0.8
						c0-0.2-0.1-0.4-0.2-0.5c-0.2,0.1-0.7,0.3-1.2,0.3C50.4,10.6,50,10.2,49.9,9.5 M49.9,8.7c0.1-0.6,0.4-0.9,0.9-0.9
						c0.4,0,0.7,0.3,0.7,0.9H49.9z M7.1,14.6v5.7H9c1.7,0,2.8-1,2.8-3c0-1.8-0.8-2.8-2.6-2.8L7.1,14.6L7.1,14.6z M8.3,15.6h0.9
						c1.1,0,1.4,0.8,1.4,1.8c0,1.2-0.5,1.9-1.7,1.9H8.2L8.3,15.6C8.2,15.6,8.3,15.6,8.3,15.6z M15.7,19.2c-0.2,0.1-0.5,0.2-0.9,0.2
						s-0.7-0.3-0.7-0.8V16H13v3c0,1,0.6,1.5,1.4,1.5c0.7,0,1.1-0.3,1.3-0.8l0,0c0,0.2,0.1,0.5,0.2,0.7h0.9V16h-1.1
						C15.7,16,15.7,19.2,15.7,19.2z M14,14.1c-0.4,0-0.7,0.2-0.7,0.6s0.3,0.6,0.7,0.6s0.7-0.2,0.7-0.6C14.6,14.3,14.4,14.1,14,14.1
						 M15.9,14.1c-0.4,0-0.7,0.2-0.7,0.6s0.3,0.6,0.7,0.6c0.4,0,0.7-0.2,0.7-0.6C16.6,14.3,16.3,14.1,15.9,14.1 M19.9,15.9
						c-1.2,0-1.7,0.5-1.7,1.4c0,1.5,2,1.2,2,1.9c0,0.2-0.2,0.4-0.7,0.4s-0.9-0.2-1.1-0.3c-0.2,0.2-0.2,0.4-0.2,0.6
						c0,0.6,0.8,0.7,1.4,0.7c1.1,0,1.8-0.5,1.8-1.5c0-1.4-2-1.1-2-1.8c0-0.2,0.1-0.4,0.6-0.4c0.4,0,0.8,0.2,1,0.3
						c0.1-0.2,0.2-0.4,0.2-0.6C21.1,16,20.4,15.9,19.9,15.9 M24.3,15.9c-1.2,0-1.7,0.5-1.7,1.4c0,1.5,2,1.2,2,1.9
						c0,0.2-0.2,0.4-0.7,0.4s-0.9-0.2-1.1-0.3c-0.2,0.2-0.2,0.4-0.2,0.6c0,0.6,0.8,0.7,1.4,0.7c1.1,0,1.8-0.5,1.8-1.5
						c0-1.4-2-1.1-2-1.8c0-0.2,0.1-0.4,0.6-0.4c0.4,0,0.8,0.2,1,0.3c0.1-0.2,0.2-0.4,0.2-0.6C25.6,16,24.9,15.9,24.3,15.9
						 M28.1,18.4h2.6c0-0.2,0.1-0.4,0.1-0.6c0-1.1-0.6-1.9-1.8-1.9c-1.3,0-2.1,1-2.1,2.3c0,1.5,0.8,2.3,2.2,2.3
						c0.8,0,1.6-0.2,1.6-0.8c0-0.2-0.1-0.4-0.2-0.5c-0.2,0.1-0.7,0.3-1.2,0.3C28.6,19.5,28.2,19.2,28.1,18.4 M28.1,17.6
						c0.1-0.6,0.4-0.9,0.9-0.9c0.4,0,0.7,0.3,0.7,0.9H28.1z M32.2,20.4h1.1v-6.3h-1.1V20.4z M37.5,16c-0.2,0-0.5-0.1-0.7-0.1
						c-1.4,0-2.1,0.9-2.1,2.4c0,1.2,0.5,2.1,1.6,2.1c0.6,0,1.1-0.2,1.2-0.8h0.1c0,0.2,0.1,0.4,0.2,0.7h0.9v-6.2h-1.1V16H37.5z
						 M37.5,17v2.1c-0.2,0.1-0.5,0.2-0.8,0.2c-0.6,0-0.8-0.3-0.8-1.1c0-0.9,0.4-1.4,1-1.4C37.1,16.9,37.3,16.9,37.5,17 M42.1,15.9
						c-1.3,0-2.1,0.8-2.1,2.3s0.8,2.3,2,2.3s2.1-0.8,2.1-2.4C44.1,16.6,43.3,15.9,42.1,15.9 M42.1,16.9c0.6,0,0.8,0.5,0.8,1.3
						c0,0.9-0.3,1.4-0.9,1.4c-0.6,0-0.9-0.5-0.9-1.3C41.1,17.4,41.4,16.9,42.1,16.9 M45.3,16v4.4h1.1v-2.9c0.1-0.3,0.4-0.5,0.8-0.5
						c0.3,0,0.6,0.1,0.7,0.2c0.2-0.2,0.3-0.5,0.3-0.7c0-0.3-0.2-0.6-0.8-0.6c-0.7,0-1,0.4-1,0.9h-0.1c0-0.3-0.1-0.5-0.2-0.8H45.3z
						 M50.8,20.4v-3.5H52V16h-1.2v-0.2c0-0.5,0.2-0.8,0.7-0.8c0.4,0,0.7,0.1,0.8,0.2c0.1-0.2,0.2-0.4,0.2-0.6c0-0.5-0.6-0.6-1.1-0.6
						c-1.1,0-1.7,0.6-1.7,1.7V16H49v0.9h0.7v3.5H50.8z"/>
				</g>
			</g>
		</g>
	</g>
	<g>
		<g>
			<g>
				<g>
					<defs>
						<rect id="SVGID_3_" x="0" y="-8.5" width="85" height="42.5"/>
					</defs>
					<clipPath id="SVGID_4_">
						<use xlink:href="#SVGID_3_"  style="overflow:visible;"/>
					</clipPath>
					<path class="st1" d="M59.4,9.6h-2.5V8.7h1.8c0,0,1.9-0.1,3.1-0.6c1.3-0.6,1.9-1.1,2.6-1.6c0.5-0.4,1.7-1.4,4.1-1.4
						c-1.3,2.6-3.4,3.5-4.8,4C62.4,9.6,59.4,9.6,59.4,9.6 M75.5,7.5c-0.9-0.9-2.1-1.5-3.4-1.9c0,0-1.3,2.6-5.2,4c-2.7,1-6.5,1-6.5,1
						h-3.5v0.9h4.5c1.5,0,6.5,0.1,9.9-1.4C74.1,8.8,75.5,7.5,75.5,7.5 M59.4,16h-2.5v0.9h1.8c0,0,1.9,0.1,3.1,0.6
						c1.3,0.6,1.9,1.1,2.6,1.6c0.5,0.4,1.7,1.4,4.1,1.4c-1.3-2.6-3.4-3.5-4.8-4C62.4,16,59.4,16,59.4,16 M71.4,15.6
						c-3.5-1.5-8.4-1.4-9.9-1.4H57v0.9h3.5c0,0,3.8,0,6.5,1c3.9,1.4,5.2,4,5.2,4c1.3-0.4,2.5-1,3.4-1.9
						C75.5,18.1,74.1,16.8,71.4,15.6 M56.9,13.2h3.2c0,0,5.5,0,10,0.4c5,0.4,7.2,1.2,7.5,1.3c0.2-0.5,0.4-1.4,0.4-2.1
						s-0.2-1.6-0.4-2.1c-0.3,0.1-2.6,0.9-7.5,1.3c-4.5,0.4-10,0.4-10,0.4h-3.2C56.9,12.4,56.9,13.2,56.9,13.2z"/>
				</g>
			</g>
		</g>
	</g>
</g>
</svg>
